<?xml version="1.0" standalone="no"?>
<!DOCTYPE svg PUBLIC "-//W3C//DTD SVG 1.1//EN" "http://www.w3.org/Graphics/SVG/1.1/DTD/svg11.dtd" >
<svg xmlns="http://www.w3.org/2000/svg">
<metadata>
Created by FontPrep 20130207 at Mon Dec 12 09:42:45 2016
 By Matthijs Openneer
Copyright (c) 2010 by Svetoslav Simov. All rights reserved.
</metadata>
<defs>
<font id="ddf2a027830884e4f0684fdab3b8518e" horiz-adv-x='1024' >
  <font-face 
    font-family="Code-Bold"
    font-weight="700"
    font-stretch="normal"
    units-per-em="2048"
    panose-1="2 0 5 6 3 0 0 2 0 4"
    ascent="1434"
    descent="-614"
    x-height="1432"
    cap-height="1432"
    bbox="-115 -462.787 1858 1739"
    underline-thickness="0"
    underline-position="0"
    unicode-range="U+0020-FB02"
  />
<missing-glyph horiz-adv-x="989" 
d="M338 686l-160 238v-480zM463 881l182 274h-362zM647 211l-184 281l-182 -281h366zM748 924l-162 -238q30 -45 66 -97t96 -143v478zM-35 0v1368h996v-1368h-996z" />
    <glyph glyph-name="f_i" unicode="fi" horiz-adv-x="1533" 
d="M1456 1432v-205h-266v-1032h266v-195h-739v195h266v1237h473zM240 612v-612h-207v1432h854v-207h-647v-404h573v-209h-573z" />
    <glyph glyph-name="f_l" unicode="fl" horiz-adv-x="1923" 
d="M1184 1432v-1225h674v-207h-881v1432h207zM250 612v-612h-207v1432h854v-207h-647v-404h573v-209h-573z" />
    <glyph glyph-name=".notdef" horiz-adv-x="989" 
d="M338 686l-160 238v-480zM463 881l182 274h-362zM647 211l-184 281l-182 -281h366zM748 924l-162 -238q30 -45 66 -97t96 -143v478zM-35 0v1368h996v-1368h-996z" />
    <glyph glyph-name=".null" horiz-adv-x="0" 
 />
    <glyph glyph-name="nonmarkingreturn" horiz-adv-x="681" 
 />
    <glyph glyph-name="space" unicode=" " horiz-adv-x="720" 
 />
    <glyph glyph-name="exclam" unicode="!" horiz-adv-x="419" 
d="M45 112q0 52 36 88t91 36t91 -36t36 -88t-37 -88t-90 -36t-90 36t-37 88zM66 1434h215v-1119h-215v1119z" />
    <glyph glyph-name="quotedbl" unicode="&#x22;" horiz-adv-x="589" 
d="M291 1430h198v-508h-198v508zM4 1430h199v-508h-199v508z" />
    <glyph glyph-name="dollar" unicode="$" horiz-adv-x="1126" 
d="M254 1141h-2q-63 -99 -8 -201t176 -100v395q-117 -28 -166 -94zM625 608v-409q127 -5 188 103t9 212t-197 94zM420 1552h205v-110q153 -27 261 -114t126 -238l-203 -21q-15 63 -67 109t-117 55v-418q182 -6 303 -102t121 -289t-116 -289t-308 -133v-125h-205v125
q-158 27 -279 125t-137 252v14l207 2l2 -2q13 -63 75 -119t132 -75v432q-119 -12 -217 46q-200 119 -190 364q5 118 79 219q115 149 328 182v110z" />
    <glyph glyph-name="ampersand" unicode="&#x26;" horiz-adv-x="1228" 
d="M520 188q144 0 220 58t75 151v232h-319q-133 3 -202 -55t-76 -148t76 -164q82 -74 226 -74zM498 834h665v-205h-143v-240q0 -176 -128 -287q-128 -110 -374 -114t-385 134t-121 329q12 87 66 167t151 119q-153 90 -153 290q0 199 140 309t329 110q313 0 426 -299
l-187 -57q-68 152 -239 151q-107 0 -185 -55q-78 -56 -78 -146t50 -148q51 -58 166 -58z" />
    <glyph glyph-name="quotesingle" unicode="'" horiz-adv-x="288" 
d="M10 1436h197v-508h-197v508z" />
    <glyph glyph-name="comma" unicode="," horiz-adv-x="438" 
d="M197 -162h-207l149 377h240z" />
    <glyph glyph-name="period" unicode="." horiz-adv-x="319" 
d="M120 246q54 0 90 -35t36 -88t-37 -91t-89 -38t-89 39t-37 90t36 87t90 36z" />
    <glyph glyph-name="zero" unicode="0" horiz-adv-x="1130" 
d="M517 -4q-167 0 -289 102t-178 255t-56 331t56 332t178 256t290 102q246 0 385 -206t139 -484q0 -391 -235 -586q-123 -102 -290 -102zM518 1176q-156 0 -242 -146t-86 -346q0 -201 86 -345t242 -144t242 145t86 345q0 199 -86 345t-242 146z" />
    <glyph glyph-name="one" unicode="1" horiz-adv-x="550" 
d="M444 0h-204v1044l-193 -262l-156 113l388 545h165v-1440z" />
    <glyph glyph-name="two" unicode="2" horiz-adv-x="1087" 
d="M506 1442q156 0 276 -64q218 -115 244 -381q10 -115 -47 -229t-170 -193q-98 -80 -227 -184t-236 -192h658v-199h-1006v160l674 573h-2q111 80 133 200q23 120 -59 211t-223 91q-142 1 -216 -73t-92 -201l-207 16q29 205 158 335t342 130z" />
    <glyph glyph-name="three" unicode="3" horiz-adv-x="1062" 
d="M313 623v194h215q98 0 148 66q49 67 49 157t-81 144t-179 55q-98 0 -169 -46t-89 -126l-187 45q37 156 159 240q123 84 295 84t312 -106t142 -308q2 -203 -129 -291q188 -111 184 -334q-2 -168 -138 -292q-135 -123 -365 -123t-352 106t-148 268l192 35q14 -92 90 -154
q76 -63 220 -63t229 74t77 161t-70 150t-190 64h-215z" />
    <glyph glyph-name="four" unicode="4" horiz-adv-x="1083" 
d="M692 520v555l-448 -555h448zM893 1434v-910h117v-200h-117v-324h-205v324h-715v145l760 965h160z" />
    <glyph glyph-name="five" unicode="5" horiz-adv-x="1093" 
d="M16 1440h914v-201h-705v-287q258 84 486 -8q143 -59 221 -179t80 -265q2 -204 -138 -352t-387 -148q-360 0 -489 326l190 77q96 -195 299 -194q152 0 235 86t81 205q0 78 -44 148t-122 104q-250 102 -504 -47l-117 53v682z" />
    <glyph glyph-name="six" unicode="6" horiz-adv-x="1110" 
d="M1030 492q0 -200 -138 -346t-384 -146t-384 146t-138 346q0 153 88 286l467 656h254l-351 -494q78 29 176 23t173 -48q115 -67 176 -181t61 -242zM823 492q1 118 -81 202t-233 84t-234 -85t-83 -201t84 -200q82 -83 233 -83t233 83t81 200z" />
    <glyph glyph-name="seven" unicode="7" horiz-adv-x="1038" 
d="M-14 1434h1009v-142l-706 -1292h-238l672 1231h-737v203z" />
    <glyph glyph-name="eight" unicode="8" horiz-adv-x="1091" 
d="M963 1042q-1 -84 -49 -170t-132 -122q118 -46 180 -138t62 -196q0 -174 -137 -302t-383 -128t-381 124t-135 306q0 98 65 190q66 92 183 144q-104 43 -147 127q-42 84 -42 167q2 190 139 296t336 106t320 -120t121 -284zM504 1264q-98 0 -175 -60t-77 -149q0 -90 66 -156
q66 -65 187 -65t187 66t66 155t-78 149t-176 60zM817 414q0 92 -82 160t-229 69q-146 0 -230 -69q-84 -68 -84 -160t84 -164q83 -72 229 -72t229 72t83 164z" />
    <glyph glyph-name="nine" unicode="9" horiz-adv-x="1122" 
d="M-4 950q0 203 139 350q139 148 387 148t388 -148t141 -350q0 -151 -88 -288l-471 -662h-256l352 500q-80 -31 -179 -25t-171 47q-117 68 -180 184q-62 116 -62 244zM522 662q152 0 235 86t83 204t-83 201q-83 84 -235 84t-234 -84t-83 -202q1 -117 83 -203t234 -86z" />
    <glyph glyph-name="colon" unicode=":" horiz-adv-x="305" 
d="M-6 674q0 50 33 82t84 32t85 -32t34 -83q0 -50 -36 -85q-34 -35 -83 -35t-83 36t-34 85zM-6 115q0 49 33 81t84 33q51 -1 85 -33t34 -81t-36 -85q-34 -36 -83 -36t-83 36t-34 85z" />
    <glyph glyph-name="semicolon" unicode=";" horiz-adv-x="286" 
d="M-115 -201l150 377h239l-182 -377h-207zM108 553q-50 0 -82 36q-34 36 -34 85q0 50 32 82t84 32q51 0 86 -32q34 -33 34 -83t-36 -85q-34 -35 -84 -35z" />
    <glyph glyph-name="question" unicode="?" horiz-adv-x="1044" 
d="M311 107q0 55 37 93t94 38q58 0 96 -38t38 -92t-40 -96q-38 -41 -94 -41t-93 41q-38 41 -38 95zM338 299v168q0 134 79 199q45 37 73 54t96 52h-2q50 29 76 46q26 18 53 60t28 99q4 102 -77 178q-82 76 -224 76q-207 0 -313 -219l-168 96q72 152 194 244t287 92
q240 0 382 -139t139 -332q-4 -125 -65 -220q-22 -34 -72 -72t-72 -50q-22 -13 -70 -39q-50 -27 -93 -55q-44 -29 -44 -72l2 -166h-209z" />
    <glyph glyph-name="A" unicode="A" 
d="M993 0l-172 422h-514q-119 -283 -172 -422h-223l575 1452h152l575 -1452h-221zM565 1122l-180 -506h356z" />
    <glyph glyph-name="B" unicode="B" horiz-adv-x="1167" 
d="M238 657v-456h442q98 0 154 68q55 69 55 161t-55 160t-154 67h-442zM33 1432h596q129 0 217 -65t131 -171q47 -102 22 -218t-127 -190q115 -49 169 -146t55 -210q0 -174 -111 -303t-305 -129h-647v1432zM238 1235v-373h387q63 0 108 38q77 65 57 204q-10 55 -54 93
t-107 38h-391z" />
    <glyph glyph-name="C" unicode="C" horiz-adv-x="1454" 
d="M6 715q0 293 205 512q207 213 496 213q246 0 426 -142t241 -387h-205q-55 158 -178 241t-284 83q-205 0 -353 -154q-148 -155 -147 -367q0 -212 147 -366t353 -153q163 0 291 90t184 252h202q-61 -246 -245 -397t-432 -150q-293 0 -497 216t-204 509z" />
    <glyph glyph-name="D" unicode="D" horiz-adv-x="1333" 
d="M35 1432h514q170 0 307 -62t222 -162q175 -209 175 -491t-175 -494q-85 -103 -222 -163t-307 -60h-514v1432zM242 207h307q235 1 367 151t133 357q-1 207 -133 359t-367 151h-307v-1018z" />
    <glyph glyph-name="E" unicode="E" horiz-adv-x="958" 
d="M233 612v-405h666v-207h-874v1432h872v-207h-664v-404h650v-209h-650z" />
    <glyph glyph-name="F" unicode="F" horiz-adv-x="919" 
d="M231 612v-612h-206v1432h854v-207h-648v-404h574v-209h-574z" />
    <glyph glyph-name="G" unicode="G" horiz-adv-x="1484" 
d="M711 1235q-211 1 -355 -147t-143 -373q0 -225 143 -376t355 -151q143 0 266 72t184 219h-530v207h772q-16 -185 -39 -246q-72 -198 -261 -324t-392 -126q-303 0 -504 205t-201 520t203 521t502 206q222 0 414 -117q97 -59 169 -163t99 -242h-222q-39 160 -172 238
t-288 77z" />
    <glyph glyph-name="H" unicode="H" horiz-adv-x="1153" 
d="M238 1432v-605h606v605h209v-1432h-209v623h-606v-623h-207v1432h207z" />
    <glyph glyph-name="I" unicode="I" horiz-adv-x="796" 
d="M727 1432v-205h-266v-1020h266v-207h-739v207h266v1020h-266v205h739z" />
    <glyph glyph-name="J" unicode="J" horiz-adv-x="827" 
d="M741 1432v-811q0 -305 -220 -463t-570 -158v207q258 0 421 104t163 310v606h-388v205h594z" />
    <glyph glyph-name="K" unicode="K" horiz-adv-x="1075" 
d="M279 664v104l499 664h260l-546 -711l604 -721h-271zM35 1432h205v-1432h-205v1432z" />
    <glyph glyph-name="L" unicode="L" horiz-adv-x="962" 
d="M233 1432v-1225h674v-207h-880v1432h206z" />
    <glyph glyph-name="M" unicode="M" horiz-adv-x="1447" 
d="M246 0h-207v1434h168l473 -697l473 697h164v-1434h-205v1010l-375 -557h-116l-375 557v-1010z" />
    <glyph glyph-name="N" unicode="N" 
d="M240 0h-207v1436l160 -2l698 -1010v1010h205v-1434h-164l-692 1001v-1001z" />
    <glyph glyph-name="O" unicode="O" horiz-adv-x="1552" 
d="M-4 717q0 299 213 517t515 218t519 -217q213 -219 213 -518t-213 -517t-518 -218t-517 218t-212 517zM1247 717q1 215 -153 371t-369 155q-215 0 -368 -155q-153 -156 -153 -372t154 -371q152 -155 367 -155t371 156q151 156 151 371z" />
    <glyph glyph-name="P" unicode="P" horiz-adv-x="1079" 
d="M238 682h315q123 0 191 80t69 190q0 110 -69 192q-69 81 -191 81h-315v-543zM29 1434h524q219 0 342 -142t123 -338q0 -195 -123 -336t-342 -141h-315v-477h-209v1434z" />
    <glyph glyph-name="Q" unicode="Q" horiz-adv-x="1568" 
d="M1552 0h-225l-135 121q-240 -158 -520 -134t-449 212q-213 233 -213 525t213 510t515 218t519 -217q213 -219 213 -518q0 -246 -155 -449l237 -223v-45zM1262 730q0 200 -153 356t-368 157q-215 0 -370 -156q-154 -157 -154 -371t154 -372q133 -133 314 -156t345 76
l-397 354h287l243 -221q99 133 99 333z" />
    <glyph glyph-name="R" unicode="R" horiz-adv-x="1079" 
d="M315 727h242q123 0 192 74t69 175t-69 175t-192 74h-317v-1225h-205v1434h522q221 0 344 -136t123 -309q0 -172 -97 -296t-274 -154l453 -539h-268l-523 629v98z" />
    <glyph glyph-name="S" unicode="S" horiz-adv-x="1134" 
d="M1059 424q0 -196 -162 -316t-371 -120q-258 0 -420 175q-84 91 -96 212l-2 39l209 4l2 -23q11 -94 105 -148t212 -54t216 64q98 65 98 169q0 75 -36 108q-36 34 -104 53t-165 28t-155 19q-157 28 -257 109q-100 80 -112 238q-13 158 77 276q70 91 188 141t246 50
q182 0 322 -96q139 -97 166 -281l-205 -8q-20 90 -105 137t-188 45q-178 -4 -260 -108q-41 -53 -36 -130t65 -119q61 -42 132 -50t145 -16q420 -48 476 -288q16 -66 15 -110z" />
    <glyph glyph-name="T" unicode="T" horiz-adv-x="1093" 
d="M600 -6h-207v1231h-434v209h1073v-209h-432v-1231z" />
    <glyph glyph-name="U" unicode="U" horiz-adv-x="1206" 
d="M566 -14q-130 0 -248 48t-200 152t-81 244v1002h209v-1004q0 -111 98 -173t222 -62t222 63t99 174v1002h209v-1004q0 -138 -82 -242t-200 -152t-248 -48z" />
    <glyph glyph-name="V" unicode="V" horiz-adv-x="1232" 
d="M567 360l430 1072h222l-576 -1436h-151l-576 1436h225z" />
    <glyph glyph-name="W" unicode="W" horiz-adv-x="1742" 
d="M1130 399l345 1033h217l-478 -1444h-153l-248 694q-105 -290 -244 -694h-153l-477 1444h215l342 -1035l235 670h166z" />
    <glyph glyph-name="X" unicode="X" horiz-adv-x="1230" 
d="M-86 1432h254l389 -537l391 537h252l-518 -719q442 -606 518 -713h-252l-391 537l-389 -537h-254l518 713q-98 135 -518 719z" />
    <glyph glyph-name="Y" unicode="Y" horiz-adv-x="1161" 
d="M637 0h-209v584l-530 848h243l391 -629l392 629h245l-532 -848v-584z" />
    <glyph glyph-name="Z" unicode="Z" horiz-adv-x="1091" 
d="M2 1243v189h971l69 -132l-811 -1116h799v-184h-1005l-84 115l827 1128h-766z" />
    <glyph glyph-name="grave" unicode="`" horiz-adv-x="503" 
d="M414 1249h-195l-231 219h278z" />
    <glyph glyph-name="a" unicode="a" 
d="M993 0l-172 422h-514q-119 -283 -172 -422h-223l575 1452h152l575 -1452h-221zM565 1122l-180 -506h356z" />
    <glyph glyph-name="b" unicode="b" horiz-adv-x="1150" 
d="M238 657v-456h442q98 0 154 68q55 69 55 161t-55 160t-154 67h-442zM33 1432h596q129 0 217 -65t131 -171q47 -102 22 -218t-127 -190q115 -49 169 -146t55 -210q0 -174 -111 -303t-305 -129h-647v1432zM238 1235v-373h387q63 0 108 38q77 65 57 204q-10 55 -54 93
t-107 38h-391z" />
    <glyph glyph-name="c" unicode="c" horiz-adv-x="1454" 
d="M6 715q0 293 205 512q207 213 496 213q246 0 426 -142t241 -387h-205q-55 158 -178 241t-284 83q-205 0 -353 -154q-148 -155 -147 -367q0 -212 147 -366t353 -153q163 0 291 90t184 252h202q-61 -246 -245 -397t-432 -150q-293 0 -497 216t-204 509z" />
    <glyph glyph-name="d" unicode="d" horiz-adv-x="1333" 
d="M35 1432h514q170 0 307 -62t222 -162q175 -209 175 -491t-175 -494q-85 -103 -222 -163t-307 -60h-514v1432zM242 207h307q235 1 367 151t133 357q-1 207 -133 359t-367 151h-307v-1018z" />
    <glyph glyph-name="e" unicode="e" horiz-adv-x="958" 
d="M233 612v-405h666v-207h-874v1432h872v-207h-664v-404h650v-209h-650z" />
    <glyph glyph-name="f" unicode="f" horiz-adv-x="919" 
d="M231 612v-612h-206v1432h854v-207h-648v-404h574v-209h-574z" />
    <glyph glyph-name="g" unicode="g" horiz-adv-x="1484" 
d="M711 1235q-211 1 -355 -147t-143 -373q0 -225 143 -376t355 -151q143 0 266 72t184 219h-530v207h772q-16 -185 -39 -246q-72 -198 -261 -324t-392 -126q-303 0 -504 205t-201 520t203 521t502 206q222 0 414 -117q97 -59 169 -163t99 -242h-222q-39 160 -172 238
t-288 77z" />
    <glyph glyph-name="h" unicode="h" horiz-adv-x="1153" 
d="M238 1432v-605h606v605h209v-1432h-209v623h-606v-623h-207v1432h207z" />
    <glyph glyph-name="i" unicode="i" horiz-adv-x="765" 
d="M707 1432v-205h-267v-1020h267v-207h-740v207h266v1020h-266v205h740z" />
    <glyph glyph-name="j" unicode="j" horiz-adv-x="843" 
d="M758 1432v-811q0 -307 -215 -464t-563 -157v195q254 -1 412 109t159 317v606h-387v205h594z" />
    <glyph glyph-name="k" unicode="k" horiz-adv-x="1075" 
d="M279 664v104l499 664h260l-546 -711l604 -721h-271zM35 1432h205v-1432h-205v1432z" />
    <glyph glyph-name="l" unicode="l" horiz-adv-x="978" 
d="M250 1432v-1225h674v-207h-881v1432h207z" />
    <glyph glyph-name="m" unicode="m" horiz-adv-x="1447" 
d="M246 0h-207v1434h168l473 -697l473 697h164v-1434h-205v1010l-375 -557h-116l-375 557v-1010z" />
    <glyph glyph-name="n" unicode="n" 
d="M240 0h-207v1436l160 -2l698 -1010v1010h205v-1434h-164l-692 1001v-1001z" />
    <glyph glyph-name="o" unicode="o" horiz-adv-x="1552" 
d="M-4 717q0 299 213 517t515 218t519 -217q213 -219 213 -518t-213 -517t-518 -218t-517 218t-212 517zM1247 717q1 215 -153 371t-369 155q-215 0 -368 -155q-153 -156 -153 -372t154 -371q152 -155 367 -155t371 156q151 156 151 371z" />
    <glyph glyph-name="p" unicode="p" horiz-adv-x="1091" 
d="M238 682h315q123 0 191 80t69 190q0 110 -69 192q-69 81 -191 81h-315v-543zM29 1434h524q219 0 342 -142t123 -338q0 -195 -123 -336t-342 -141h-315v-477h-209v1434z" />
    <glyph glyph-name="q" unicode="q" horiz-adv-x="1585" 
d="M1552 0h-225l-135 121q-240 -158 -520 -134t-449 212q-213 233 -213 525t213 510t515 218t519 -217q213 -219 213 -518q0 -246 -155 -449l237 -223v-45zM1262 730q0 200 -153 356t-368 157q-215 0 -370 -156q-154 -157 -154 -371t154 -372q133 -133 314 -156t345 76
l-397 354h287l243 -221q99 133 99 333z" />
    <glyph glyph-name="r" unicode="r" horiz-adv-x="1087" 
d="M315 727h242q123 0 192 74t69 175t-69 175t-192 74h-317v-1225h-205v1434h522q221 0 344 -136t123 -309q0 -172 -97 -296t-274 -154l453 -539h-268l-523 629v98z" />
    <glyph glyph-name="s" unicode="s" horiz-adv-x="1134" 
d="M1059 424q0 -196 -162 -316t-371 -120q-258 0 -420 175q-84 91 -96 212l-2 39l209 4l2 -23q11 -94 105 -148t212 -54t216 64q98 65 98 169q0 75 -36 108q-36 34 -104 53t-165 28t-155 19q-157 28 -257 109q-100 80 -112 238q-13 158 77 276q70 91 188 141t246 50
q182 0 322 -96q139 -97 166 -281l-205 -8q-20 90 -105 137t-188 45q-178 -4 -260 -108q-41 -53 -36 -130t65 -119q61 -42 132 -50t145 -16q420 -48 476 -288q16 -66 15 -110z" />
    <glyph glyph-name="t" unicode="t" horiz-adv-x="1093" 
d="M600 -6h-207v1247h-434v193h1073v-193h-432v-1247z" />
    <glyph glyph-name="u" unicode="u" horiz-adv-x="1206" 
d="M566 -14q-130 0 -248 48t-200 152t-81 244v1002h209v-1004q0 -111 98 -173t222 -62t222 63t99 174v1002h209v-1004q0 -138 -82 -242t-200 -152t-248 -48z" />
    <glyph glyph-name="v" unicode="v" horiz-adv-x="1232" 
d="M567 360l430 1072h222l-576 -1436h-151l-576 1436h225z" />
    <glyph glyph-name="w" unicode="w" horiz-adv-x="1742" 
d="M1130 399l345 1033h217l-482 -1440h-145l-252 690l-248 -690h-145l-481 1440h215l342 -1035l235 670h166z" />
    <glyph glyph-name="x" unicode="x" horiz-adv-x="1230" 
d="M-86 1432h254l389 -537l391 537h252l-518 -719q442 -606 518 -713h-252l-391 537l-389 -537h-254l518 713q-98 135 -518 719z" />
    <glyph glyph-name="y" unicode="y" horiz-adv-x="1161" 
d="M637 0h-209v584l-530 848h243l391 -629l392 629h245l-532 -848v-584z" />
    <glyph glyph-name="z" unicode="z" horiz-adv-x="1091" 
d="M2 1243v189h971l69 -132l-811 -1116h799v-184h-1005l-84 115l827 1128h-766z" />
    <glyph glyph-name="uni00A0" unicode="&#xa0;" horiz-adv-x="409" 
 />
    <glyph glyph-name="exclamdown" unicode="&#xa1;" horiz-adv-x="413" 
d="M172 1186q-55 0 -91 36t-36 88t37 88t90 36t90 -36t37 -88t-36 -88t-91 -36zM63 -12v1118h216v-1118h-216z" />
    <glyph glyph-name="yen" unicode="&#xa5;" horiz-adv-x="1161" 
d="M201 416v149h233l-26 51h-207v142h118l-421 674h243l391 -629l392 629h245l-424 -674h109v-142h-197l-28 -51h225v-149h-217v-416h-209v416h-227z" />
    <glyph glyph-name="dieresis" unicode="&#xa8;" horiz-adv-x="808" 
d="M569 1509q51 1 84 -33t33 -82t-36 -84t-83 -36t-82 35t-35 84t34 83q34 33 85 33zM186 1509q51 1 85 -33t34 -83t-35 -84t-84 -35t-83 35q-33 35 -33 84t32 83q33 33 84 33z" />
    <glyph glyph-name="acute" unicode="&#xb4;" horiz-adv-x="503" 
d="M227 1249h-194l147 219h279z" />
    <glyph glyph-name="periodcentered" unicode="&#xb7;" horiz-adv-x="337" 
d="M152 766q51 0 85 -33q33 -33 33 -83t-34 -85t-84 -35q-49 0 -83 36t-34 85t33 82t84 33z" />
    <glyph glyph-name="questiondown" unicode="&#xbf;" horiz-adv-x="1052" 
d="M524 1182q-57 0 -95 38t-38 92t39 95t94 41t93 -41t38 -95t-37 -92t-94 -38zM629 1120v-168q0 -132 -79 -198q-44 -36 -73 -54t-96 -53h2q-51 -29 -77 -46t-52 -59t-29 -100q-4 -102 78 -178t223 -76q207 0 314 220l168 -97q-72 -151 -194 -243t-288 -93
q-240 -1 -382 139t-137 333t135 291q50 38 72 50t76 42t70 40q16 8 39 33t23 51l-2 166h209z" />
    <glyph glyph-name="Agrave" unicode="&#xc0;" 
d="M657 1507h-194l-232 219h279zM993 0l-172 422h-514q-119 -283 -172 -422h-223l575 1452h152l575 -1452h-221zM565 1122l-180 -506h356z" />
    <glyph glyph-name="Aacute" unicode="&#xc1;" 
d="M655 1505h-194l147 219h279zM993 0l-172 422h-514q-119 -283 -172 -422h-223l575 1452h152l575 -1452h-221zM565 1122l-180 -506h356z" />
    <glyph glyph-name="Acircumflex" unicode="&#xc2;" 
d="M463 1493h-225l231 205h176l225 -205h-221l-98 80zM993 0l-172 422h-514q-119 -283 -172 -422h-223l575 1452h152l575 -1452h-221zM565 1122l-180 -506h356z" />
    <glyph glyph-name="Atilde" unicode="&#xc3;" 
d="M993 0l-172 422h-514q-119 -283 -172 -422h-223l575 1452h152l575 -1452h-221zM565 1122l-180 -506h356zM414 1497l-119 55q61 141 149 154q61 4 129 -42q65 -39 86 -21t33 63l131 -66q-51 -125 -133 -147q-60 -18 -151 44q-33 21 -67 15t-58 -55z" />
    <glyph glyph-name="Adieresis" unicode="&#xc4;" 
d="M639 1586q0 40 33 68t83 27t82 -27q31 -26 31 -67t-34 -69t-81 -29q-46 0 -80 29q-34 28 -34 68zM268 1586q0 40 32 68t83 27t83 -27t32 -67t-33 -69t-82 -29q-49 0 -82 29q-33 28 -33 68zM993 0l-172 422h-514q-119 -283 -172 -422h-223l575 1452h152l575 -1452h-221z
M565 1122l-180 -506h356z" />
    <glyph glyph-name="Aring" unicode="&#xc5;" horiz-adv-x="1216" 
d="M635 1566q1 26 -19 46t-47 20t-46 -20t-19 -46t19 -45t47 -19t46 18q18 20 19 46zM578 1122l-181 -506h357zM397 1565q0 72 50 123t121 51t122 -52t51 -134t-77 -134l563 -1419h-221l-172 422h-515q-119 -283 -172 -422h-223l559 1413q-86 52 -86 152z" />
    <glyph glyph-name="AE" unicode="&#xc6;" horiz-adv-x="1720" 
d="M569 717h189l20 454zM965 510v-303h667v-207h-874v510h-303q-178 -309 -291 -510h-234l803 1434h895v-207h-663v-510h649v-207h-649z" />
    <glyph glyph-name="Ccedilla" unicode="&#xc7;" horiz-adv-x="1431" 
d="M6 715q0 293 205 512q207 213 496 213q246 0 426 -142t241 -387h-205q-55 158 -178 241t-284 83q-205 0 -353 -154q-148 -155 -147 -367q0 -212 147 -366t353 -153q163 0 291 90t184 252h202q-59 -233 -228 -381t-400 -164l-21 -55q101 -6 155 -71t32 -150t-119 -143
q-96 -58 -228 -22q-57 15 -102 59t-57 103l119 37q74 -94 157 -72q56 14 68 66t-72 82q-55 18 -141 14l67 156q-238 31 -403 207q-205 219 -205 512z" />
    <glyph glyph-name="Egrave" unicode="&#xc8;" horiz-adv-x="958" 
d="M623 1499h-195l-231 219h278zM233 207h666v-207h-874v1432h872v-207h-664v-404h650v-209h-650v-405z" />
    <glyph glyph-name="Eacute" unicode="&#xc9;" horiz-adv-x="958" 
d="M545 1495h-195l148 219h278zM233 612v-405h666v-207h-874v1432h872v-207h-664v-404h650v-209h-650z" />
    <glyph glyph-name="Ecircumflex" unicode="&#xca;" horiz-adv-x="958" 
d="M389 1501h-225l231 205h176l226 -205h-222l-98 80zM233 612v-405h666v-207h-874v1432h872v-207h-664v-404h650v-209h-650z" />
    <glyph glyph-name="Edieresis" unicode="&#xcb;" horiz-adv-x="958" 
d="M679 1700q50 0 82 -30t32 -73t-35 -75t-82 -31q-47 0 -80 31q-33 32 -33 74t33 73t83 31zM304 1700q50 0 83 -31t33 -74t-34 -73t-82 -31q-48 0 -82 32q-34 31 -34 73t33 73t83 31zM233 207h666v-207h-874v1432h872v-207h-664v-404h650v-209h-650v-405z" />
    <glyph glyph-name="Igrave" unicode="&#xcc;" horiz-adv-x="776" 
d="M457 1491h-195l-231 219h278zM717 1227h-266v-1020h266v-207h-740v207h267v1020h-267v205h740v-205z" />
    <glyph glyph-name="Iacute" unicode="&#xcd;" horiz-adv-x="765" 
d="M424 1497h-195l148 219h278zM707 1432v-205h-267v-1020h267v-207h-740v207h266v1020h-266v205h740z" />
    <glyph glyph-name="Icircumflex" unicode="&#xce;" horiz-adv-x="765" 
d="M248 1493h-225l231 205h176l225 -205h-221l-98 80zM707 1432v-205h-267v-1020h267v-207h-740v207h266v1020h-266v205h740z" />
    <glyph glyph-name="Idieresis" unicode="&#xcf;" horiz-adv-x="765" 
d="M645 1594q0 -42 -35 -74t-81 -31q-45 0 -79 31q-34 32 -34 74t32 72t83 30q50 0 82 -30t32 -72zM159 1696q50 0 83 -30q32 -30 32 -73t-34 -73t-81 -31q-48 0 -81 31q-33 32 -33 74t32 72t82 30zM707 1227h-267v-1020h267v-207h-740v207h266v1020h-266v205h740v-205z" />
    <glyph glyph-name="Ntilde" unicode="&#xd1;" 
d="M240 0h-207v1436l160 -2l698 -1010v1010h205v-1434h-164l-692 1001v-1001zM444 1487l-122 51q33 82 63 122q77 99 236 -5q70 -44 92 55l135 -59q-51 -137 -125 -166q-60 -18 -156 46q-33 23 -68 15t-55 -59z" />
    <glyph glyph-name="Ograve" unicode="&#xd2;" horiz-adv-x="1552" 
d="M852 1505h-195l-231 219h279zM-4 717q0 299 213 517t515 218t519 -217q213 -219 213 -518t-213 -517t-518 -218t-517 218t-212 517zM1247 717q1 215 -153 371t-369 155q-215 0 -368 -155q-153 -156 -153 -372t154 -371q152 -155 367 -155t371 156q151 156 151 371z" />
    <glyph glyph-name="Oacute" unicode="&#xd3;" horiz-adv-x="1552" 
d="M801 1503h-195l148 219h278zM-4 717q0 299 213 517t515 218t519 -217q213 -219 213 -518t-213 -517t-518 -218t-517 218t-212 517zM1247 717q1 215 -153 371t-369 155q-215 0 -368 -155q-153 -156 -153 -372t154 -371q152 -155 367 -155t371 156q151 156 151 371z" />
    <glyph glyph-name="Ocircumflex" unicode="&#xd4;" horiz-adv-x="1552" 
d="M643 1499h-225l231 205h176l226 -205h-222l-98 80zM-4 717q0 299 213 517t515 218t519 -217q213 -219 213 -518t-213 -517t-518 -218t-517 218t-212 517zM1247 717q1 215 -153 371t-369 155q-215 0 -368 -155q-153 -156 -153 -372t154 -371q152 -155 367 -155t371 156
q151 156 151 371z" />
    <glyph glyph-name="Otilde" unicode="&#xd5;" horiz-adv-x="1552" 
d="M-4 717q0 299 213 517t515 218t519 -217q213 -219 213 -518t-213 -517t-518 -218t-517 218t-212 517zM1247 717q1 215 -153 371t-369 155q-215 0 -368 -155q-153 -156 -153 -372t154 -371q152 -155 367 -155t371 156q151 156 151 371zM584 1505l-125 45q63 143 141 154
q70 7 162 -47q69 -38 94 49l135 -49q-59 -131 -124 -152t-161 38q-85 48 -122 -38z" />
    <glyph glyph-name="Odieresis" unicode="&#xd6;" horiz-adv-x="1552" 
d="M924 1694q51 0 84 -28q32 -28 32 -70t-36 -72t-82 -31q-47 0 -81 31q-34 32 -34 72t33 69t84 29zM547 1694q51 0 84 -29t33 -71t-34 -72t-83 -29q-49 0 -82 30q-33 29 -33 71t32 71t83 29zM-4 717q0 299 213 517t515 218t519 -217q213 -219 213 -518t-213 -517t-518 -218
t-517 218t-212 517zM1247 717q1 215 -153 371t-369 155q-215 0 -368 -155q-153 -156 -153 -372t154 -371q152 -155 367 -155t371 156q151 156 151 371z" />
    <glyph glyph-name="Oslash" unicode="&#xd8;" horiz-adv-x="1556" 
d="M737 1243q-215 0 -367 -157q-152 -158 -153 -370q0 -212 154 -370v-2l10 -8l553 872q-93 35 -197 35zM1260 720q0 218 -164 382q-53 -84 -559 -871q84 -41 200 -41q215 0 371 156q152 156 152 374zM8 717q0 299 213 517t516 218q174 0 310 -68l67 105l229 2l-135 -217
q260 -225 260 -557q0 -299 -212 -517t-519 -218q-162 0 -311 67l-86 -137h-227l155 250l-47 39v-2q-213 219 -213 518z" />
    <glyph glyph-name="Ugrave" unicode="&#xd9;" horiz-adv-x="1206" 
d="M729 1489h-194l-232 219h279zM566 -14q-130 0 -248 48t-200 152t-81 244v1002h209v-1004q0 -111 98 -173t222 -62t222 63t99 174v1002h209v-1004q0 -138 -82 -242t-200 -152t-248 -48z" />
    <glyph glyph-name="Uacute" unicode="&#xda;" horiz-adv-x="1206" 
d="M623 1493h-195l147 219h279zM566 -14q-130 0 -248 48t-200 152t-81 244v1002h209v-1004q0 -111 98 -173t222 -62t222 63t99 174v1002h209v-1004q0 -138 -82 -242t-200 -152t-248 -48z" />
    <glyph glyph-name="Ucircumflex" unicode="&#xdb;" horiz-adv-x="1206" 
d="M469 1493h-225l231 205h176l226 -205h-222l-98 80zM566 -14q-130 0 -248 48t-200 152t-81 244v1002h209v-1004q0 -111 98 -173t222 -62t222 63t99 174v1002h209v-1004q0 -138 -82 -242t-200 -152t-248 -48z" />
    <glyph glyph-name="Udieresis" unicode="&#xdc;" horiz-adv-x="1206" 
d="M764 1700q51 0 84 -30t33 -74t-36 -76t-83 -31q-47 0 -81 32q-34 31 -34 75t33 74t84 30zM384 1700q50 0 84 -30t34 -75t-35 -75t-83 -31q-48 0 -82 32q-34 33 -34 75t33 73t83 31zM566 -14q-130 0 -248 48t-200 152t-81 244v1002h209v-1004q0 -111 98 -173t222 -62
t222 63t99 174v1002h209v-1004q0 -138 -82 -242t-200 -152t-248 -48z" />
    <glyph glyph-name="Yacute" unicode="&#xdd;" horiz-adv-x="1161" 
d="M602 1495h-194l147 219h279zM637 0h-209v584l-530 848h243l391 -629l392 629h245l-532 -848v-584z" />
    <glyph glyph-name="agrave" unicode="&#xe0;" 
d="M657 1507h-194l-232 219h279zM993 0l-172 422h-514q-119 -283 -172 -422h-223l575 1452h152l575 -1452h-221zM565 1122l-180 -506h356z" />
    <glyph glyph-name="aacute" unicode="&#xe1;" 
d="M655 1505h-194l147 219h279zM993 0l-172 422h-514q-119 -283 -172 -422h-223l575 1452h152l575 -1452h-221zM565 1122l-180 -506h356z" />
    <glyph glyph-name="acircumflex" unicode="&#xe2;" 
d="M463 1493h-225l231 205h176l225 -205h-221l-98 80zM993 0l-172 422h-514q-119 -283 -172 -422h-223l575 1452h152l575 -1452h-221zM565 1122l-180 -506h356z" />
    <glyph glyph-name="atilde" unicode="&#xe3;" 
d="M993 0l-172 422h-514q-119 -283 -172 -422h-223l575 1452h152l575 -1452h-221zM565 1122l-180 -506h356zM414 1497l-119 55q61 141 149 154q61 4 129 -42q65 -39 86 -21t33 63l131 -66q-51 -125 -133 -147q-60 -18 -151 44q-33 21 -67 15t-58 -55z" />
    <glyph glyph-name="adieresis" unicode="&#xe4;" 
d="M639 1586q0 40 33 68t83 27t82 -27q31 -26 31 -67t-34 -69t-81 -29q-46 0 -80 29q-34 28 -34 68zM268 1586q0 40 32 68t83 27t83 -27t32 -67t-33 -69t-82 -29q-49 0 -82 29q-33 28 -33 68zM993 0l-172 422h-514q-119 -283 -172 -422h-223l575 1452h152l575 -1452h-221z
M565 1122l-180 -506h356z" />
    <glyph glyph-name="aring" unicode="&#xe5;" horiz-adv-x="1216" 
d="M635 1566q1 26 -19 46t-47 20t-46 -20t-19 -46t19 -45t47 -19t46 18q18 20 19 46zM578 1122l-181 -506h357zM397 1565q0 72 50 123t121 51t122 -52t51 -134t-77 -134l563 -1419h-221l-172 422h-515q-119 -283 -172 -422h-223l559 1413q-86 52 -86 152z" />
    <glyph glyph-name="ae" unicode="&#xe6;" horiz-adv-x="1720" 
d="M569 717h189l20 454zM965 510v-303h667v-207h-874v510h-303q-178 -309 -291 -510h-234l803 1434h895v-207h-663v-510h649v-207h-649z" />
    <glyph glyph-name="ccedilla" unicode="&#xe7;" horiz-adv-x="1431" 
d="M6 715q0 293 205 512q207 213 496 213q246 0 426 -142t241 -387h-205q-55 158 -178 241t-284 83q-205 0 -353 -154q-148 -155 -147 -367q0 -212 147 -366t353 -153q163 0 291 90t184 252h202q-59 -233 -228 -381t-400 -164l-21 -55q101 -6 155 -71t32 -150t-119 -143
q-96 -58 -228 -22q-57 15 -102 59t-57 103l119 37q74 -94 157 -72q56 14 68 66t-72 82q-55 18 -141 14l67 156q-238 31 -403 207q-205 219 -205 512z" />
    <glyph glyph-name="egrave" unicode="&#xe8;" horiz-adv-x="958" 
d="M623 1499h-195l-231 219h278zM233 207h666v-207h-874v1432h872v-207h-664v-404h650v-209h-650v-405z" />
    <glyph glyph-name="eacute" unicode="&#xe9;" horiz-adv-x="958" 
d="M545 1495h-195l148 219h278zM233 612v-405h666v-207h-874v1432h872v-207h-664v-404h650v-209h-650z" />
    <glyph glyph-name="ecircumflex" unicode="&#xea;" horiz-adv-x="958" 
d="M389 1501h-225l231 205h176l226 -205h-222l-98 80zM233 612v-405h666v-207h-874v1432h872v-207h-664v-404h650v-209h-650z" />
    <glyph glyph-name="edieresis" unicode="&#xeb;" horiz-adv-x="958" 
d="M679 1700q50 0 82 -30t32 -73t-35 -75t-82 -31q-47 0 -80 31q-33 32 -33 74t33 73t83 31zM304 1700q50 0 83 -31t33 -74t-34 -73t-82 -31q-48 0 -82 32q-34 31 -34 73t33 73t83 31zM233 207h666v-207h-874v1432h872v-207h-664v-404h650v-209h-650v-405z" />
    <glyph glyph-name="igrave" unicode="&#xec;" horiz-adv-x="776" 
d="M457 1491h-195l-231 219h278zM717 1227h-266v-1020h266v-207h-740v207h267v1020h-267v205h740v-205z" />
    <glyph glyph-name="iacute" unicode="&#xed;" horiz-adv-x="765" 
d="M424 1497h-195l148 219h278zM707 1432v-205h-267v-1020h267v-207h-740v207h266v1020h-266v205h740z" />
    <glyph glyph-name="icircumflex" unicode="&#xee;" horiz-adv-x="765" 
d="M248 1493h-225l231 205h176l225 -205h-221l-98 80zM707 1432v-205h-267v-1020h267v-207h-740v207h266v1020h-266v205h740z" />
    <glyph glyph-name="idieresis" unicode="&#xef;" horiz-adv-x="765" 
d="M645 1594q0 -42 -35 -74t-81 -31q-45 0 -79 31q-34 32 -34 74t32 72t83 30q50 0 82 -30t32 -72zM159 1696q50 0 83 -30q32 -30 32 -73t-34 -73t-81 -31q-48 0 -81 31q-33 32 -33 74t32 72t82 30zM707 1227h-267v-1020h267v-207h-740v207h266v1020h-266v205h740v-205z" />
    <glyph glyph-name="ntilde" unicode="&#xf1;" 
d="M240 0h-207v1436l160 -2l698 -1010v1010h205v-1434h-164l-692 1001v-1001zM444 1487l-122 51q33 82 63 122q77 99 236 -5q70 -44 92 55l135 -59q-51 -137 -125 -166q-60 -18 -156 46q-33 23 -68 15t-55 -59z" />
    <glyph glyph-name="ograve" unicode="&#xf2;" horiz-adv-x="1552" 
d="M852 1505h-195l-231 219h279zM-4 717q0 299 213 517t515 218t519 -217q213 -219 213 -518t-213 -517t-518 -218t-517 218t-212 517zM1247 717q1 215 -153 371t-369 155q-215 0 -368 -155q-153 -156 -153 -372t154 -371q152 -155 367 -155t371 156q151 156 151 371z" />
    <glyph glyph-name="oacute" unicode="&#xf3;" horiz-adv-x="1552" 
d="M801 1503h-195l148 219h278zM-4 717q0 299 213 517t515 218t519 -217q213 -219 213 -518t-213 -517t-518 -218t-517 218t-212 517zM1247 717q1 215 -153 371t-369 155q-215 0 -368 -155q-153 -156 -153 -372t154 -371q152 -155 367 -155t371 156q151 156 151 371z" />
    <glyph glyph-name="ocircumflex" unicode="&#xf4;" horiz-adv-x="1552" 
d="M643 1499h-225l231 205h176l226 -205h-222l-98 80zM-4 717q0 299 213 517t515 218t519 -217q213 -219 213 -518t-213 -517t-518 -218t-517 218t-212 517zM1247 717q1 215 -153 371t-369 155q-215 0 -368 -155q-153 -156 -153 -372t154 -371q152 -155 367 -155t371 156
q151 156 151 371z" />
    <glyph glyph-name="otilde" unicode="&#xf5;" horiz-adv-x="1552" 
d="M-4 717q0 299 213 517t515 218t519 -217q213 -219 213 -518t-213 -517t-518 -218t-517 218t-212 517zM1247 717q1 215 -153 371t-369 155q-215 0 -368 -155q-153 -156 -153 -372t154 -371q152 -155 367 -155t371 156q151 156 151 371zM584 1505l-125 45q63 143 141 154
q70 7 162 -47q69 -38 94 49l135 -49q-59 -131 -124 -152t-161 38q-85 48 -122 -38z" />
    <glyph glyph-name="odieresis" unicode="&#xf6;" horiz-adv-x="1552" 
d="M924 1694q51 0 84 -28q32 -28 32 -70t-36 -72t-82 -31q-47 0 -81 31q-34 32 -34 72t33 69t84 29zM547 1694q51 0 84 -29t33 -71t-34 -72t-83 -29q-49 0 -82 30q-33 29 -33 71t32 71t83 29zM-4 717q0 299 213 517t515 218t519 -217q213 -219 213 -518t-213 -517t-518 -218
t-517 218t-212 517zM1247 717q1 215 -153 371t-369 155q-215 0 -368 -155q-153 -156 -153 -372t154 -371q152 -155 367 -155t371 156q151 156 151 371z" />
    <glyph glyph-name="oslash" unicode="&#xf8;" horiz-adv-x="1556" 
d="M737 1243q-215 0 -367 -157q-152 -158 -153 -370q0 -212 154 -370v-2l10 -8l553 872q-93 35 -197 35zM1260 720q0 218 -164 382q-53 -84 -559 -871q84 -41 200 -41q215 0 371 156q152 156 152 374zM8 717q0 299 213 517t516 218q174 0 310 -68l67 105l229 2l-135 -217
q260 -225 260 -557q0 -299 -212 -517t-519 -218q-162 0 -311 67l-86 -137h-227l155 250l-47 39v-2q-213 219 -213 518z" />
    <glyph glyph-name="ugrave" unicode="&#xf9;" horiz-adv-x="1206" 
d="M729 1489h-194l-232 219h279zM566 -14q-130 0 -248 48t-200 152t-81 244v1002h209v-1004q0 -111 98 -173t222 -62t222 63t99 174v1002h209v-1004q0 -138 -82 -242t-200 -152t-248 -48z" />
    <glyph glyph-name="uacute" unicode="&#xfa;" horiz-adv-x="1206" 
d="M623 1493h-195l147 219h279zM566 -14q-130 0 -248 48t-200 152t-81 244v1002h209v-1004q0 -111 98 -173t222 -62t222 63t99 174v1002h209v-1004q0 -138 -82 -242t-200 -152t-248 -48z" />
    <glyph glyph-name="ucircumflex" unicode="&#xfb;" horiz-adv-x="1206" 
d="M469 1493h-225l231 205h176l226 -205h-222l-98 80zM566 -14q-130 0 -248 48t-200 152t-81 244v1002h209v-1004q0 -111 98 -173t222 -62t222 63t99 174v1002h209v-1004q0 -138 -82 -242t-200 -152t-248 -48z" />
    <glyph glyph-name="udieresis" unicode="&#xfc;" horiz-adv-x="1206" 
d="M764 1700q51 0 84 -30t33 -74t-36 -76t-83 -31q-47 0 -81 32q-34 31 -34 75t33 74t84 30zM384 1700q50 0 84 -30t34 -75t-35 -75t-83 -31q-48 0 -82 32q-34 33 -34 75t33 73t83 31zM566 -14q-130 0 -248 48t-200 152t-81 244v1002h209v-1004q0 -111 98 -173t222 -62
t222 63t99 174v1002h209v-1004q0 -138 -82 -242t-200 -152t-248 -48z" />
    <glyph glyph-name="yacute" unicode="&#xfd;" horiz-adv-x="1161" 
d="M602 1495h-194l147 219h279zM637 0h-209v584l-530 848h243l391 -629l392 629h245l-532 -848v-584z" />
    <glyph glyph-name="ydieresis" unicode="&#xff;" horiz-adv-x="1161" 
d="M711 1714q51 0 84 -34t33 -82t-36 -84t-83 -36t-82 36q-35 34 -35 83t34 83t85 34zM328 1714q51 0 85 -34q33 -34 33 -83t-34 -84t-84 -35q-49 0 -83 36q-34 34 -34 83t33 83t84 34zM637 0h-209v584l-530 848h243l391 -629l392 629h245l-532 -848v-584z" />
    <glyph glyph-name="OE" unicode="&#x152;" horiz-adv-x="1697" 
d="M727 180h16v1077h-16q-221 -1 -373 -159t-152 -382t152 -380t373 -156zM952 612v-409h666v-207h-760q-68 -10 -131 -10q-311 0 -522 208t-211 523t211 523t522 208q61 0 113 -8h774v-207h-662v-412h647v-209h-647z" />
    <glyph glyph-name="oe" unicode="&#x153;" horiz-adv-x="1697" 
d="M727 180h16v1077h-16q-221 -1 -373 -159t-152 -382t152 -380t373 -156zM952 612v-409h666v-207h-760q-68 -10 -131 -10q-311 0 -522 208t-211 523t211 523t522 208q61 0 113 -8h774v-207h-662v-412h647v-209h-647z" />
    <glyph glyph-name="Scaron" unicode="&#x160;" horiz-adv-x="1134" 
d="M625 1710h225l-232 -205l-182 2l-225 203h221l100 -80zM1059 424q0 -196 -162 -316t-371 -120q-258 0 -420 175q-84 91 -96 212l-2 39l209 4l2 -23q11 -94 105 -148t212 -54t216 64q98 65 98 169q0 75 -36 108q-36 34 -104 53t-165 28t-155 19q-157 28 -257 109
q-100 80 -112 238q-13 158 77 276q70 91 188 141t246 50q182 0 322 -96q139 -97 166 -281l-205 -8q-20 90 -105 137t-188 45q-178 -4 -260 -108q-41 -53 -36 -130t65 -119q61 -42 132 -50t145 -16q420 -48 476 -288q16 -66 15 -110z" />
    <glyph glyph-name="scaron" unicode="&#x161;" horiz-adv-x="1134" 
d="M625 1710h225l-232 -205l-182 2l-225 203h221l100 -80zM1059 424q0 -196 -162 -316t-371 -120q-258 0 -420 175q-84 91 -96 212l-2 39l209 4l2 -23q11 -94 105 -148t212 -54t216 64q98 65 98 169q0 75 -36 108q-36 34 -104 53t-165 28t-155 19q-157 28 -257 109
q-100 80 -112 238q-13 158 77 276q70 91 188 141t246 50q182 0 322 -96q139 -97 166 -281l-205 -8q-20 90 -105 137t-188 45q-178 -4 -260 -108q-41 -53 -36 -130t65 -119q61 -42 132 -50t145 -16q420 -48 476 -288q16 -66 15 -110z" />
    <glyph glyph-name="Ydieresis" unicode="&#x178;" horiz-adv-x="1161" 
d="M711 1714q51 0 84 -34t33 -82t-36 -84t-83 -36t-82 36q-35 34 -35 83t34 83t85 34zM328 1714q51 0 85 -34q33 -34 33 -83t-34 -84t-84 -35q-49 0 -83 36q-34 34 -34 83t33 83t84 34zM637 0h-209v584l-530 848h243l391 -629l392 629h245l-532 -848v-584z" />
    <glyph glyph-name="Zcaron" unicode="&#x17d;" horiz-adv-x="1148" 
d="M647 1710h225l-231 -205l-182 2l-226 203h222l100 -80zM2 1225v207h1030l70 -132l-832 -1093h820v-207h-1065l-84 115l843 1110h-782z" />
    <glyph glyph-name="zcaron" unicode="&#x17e;" horiz-adv-x="1148" 
d="M647 1710h225l-231 -205l-182 2l-226 203h222l100 -80zM2 1225v207h1030l70 -132l-832 -1093h820v-207h-1065l-84 115l843 1110h-782z" />
    <glyph glyph-name="circumflex" unicode="&#x2c6;" horiz-adv-x="638" 
d="M213 1294h-225l231 205h176l226 -205h-222l-98 80z" />
    <glyph glyph-name="ring" unicode="&#x2da;" horiz-adv-x="571" 
d="M328 1427q0 27 -20 47t-46 21q-27 0 -46 -20q-19 -21 -19 -47t19 -45t47 -19q29 0 47 18t18 45zM434 1427q0 -71 -51 -121t-122 -50t-121 50q-50 51 -50 122t50 122q50 52 121 52t122 -52t51 -123z" />
    <glyph glyph-name="tilde" unicode="&#x2dc;" horiz-adv-x="712" 
d="M180 1251l-123 52q63 158 138 170q67 7 161 -53q71 -46 93 55l133 -60q-55 -143 -123 -170q-49 -18 -126 30q-30 17 -59 29q-64 28 -94 -53z" />
    <glyph glyph-name="uni03A9" unicode="&#x3a9;" horiz-adv-x="1441" 
 />
    <glyph glyph-name="pi" unicode="&#x3c0;" horiz-adv-x="1316" 
 />
    <glyph glyph-name="ellipsis" unicode="&#x2026;" horiz-adv-x="960" 
d="M655 117q0 49 34 81t85 33q51 -1 84 -33t33 -81t-34 -85t-83 -36t-84 36t-35 85zM338 117q0 49 34 81t85 33q51 -1 84 -33t33 -81t-34 -85t-83 -36t-84 36t-35 85zM145 231q51 -1 85 -33t34 -81t-35 -85t-84 -36t-83 36t-34 85t33 82q33 32 84 32z" />
    <glyph glyph-name="fraction" unicode="&#x2044;" horiz-adv-x="667" 
 />
    <glyph glyph-name="Euro" unicode="&#x20ac;" horiz-adv-x="1511" 
d="M-25 731v141h93q45 201 188 355q207 213 496 213q246 0 426 -142t241 -387h-205q-55 158 -178 241t-284 83q-205 0 -353 -154q-90 -98 -125 -209h355v-141h-377v-51h377v-150h-344q35 -98 114 -182q147 -154 353 -153q164 0 292 90t183 252h203q-62 -246 -246 -397
t-432 -150q-293 0 -496 213q-133 141 -182 327h-99v150h76v51h-76z" />
    <glyph glyph-name="litre" unicode="&#x2113;" horiz-adv-x="1001" 
 />
    <glyph glyph-name="Omega" unicode="&#x2126;" horiz-adv-x="1441" 
 />
    <glyph glyph-name="estimated" unicode="&#x212e;" horiz-adv-x="1345" 
d="M1006 682v340q-143 137 -338 137t-330 -135v-342h668zM670 -25q-264 -1 -427 181t-163 450t161 448t432 181t431 -179t168 -452h-934v-416q139 -135 332 -135q281 0 448 275l74 -45q-102 -154 -222 -231t-300 -77z" />
    <glyph glyph-name="partialdiff" unicode="&#x2202;" horiz-adv-x="1167" 
 />
    <glyph glyph-name="Delta" unicode="&#x2206;" horiz-adv-x="1230" 
 />
    <glyph glyph-name="product" unicode="&#x220f;" horiz-adv-x="1456" 
 />
    <glyph glyph-name="summation" unicode="&#x2211;" horiz-adv-x="1277" 
 />
    <glyph glyph-name="minus" unicode="&#x2212;" horiz-adv-x="1011" 
 />
    <glyph glyph-name="uni2215" unicode="&#x2215;" horiz-adv-x="667" 
 />
    <glyph glyph-name="uni2219" unicode="&#x2219;" horiz-adv-x="337" 
 />
    <glyph glyph-name="radical" unicode="&#x221a;" horiz-adv-x="1034" 
 />
    <glyph glyph-name="infinity" unicode="&#x221e;" horiz-adv-x="1585" 
 />
    <glyph glyph-name="integral" unicode="&#x222b;" horiz-adv-x="995" 
 />
    <glyph glyph-name="approxequal" unicode="&#x2248;" horiz-adv-x="1011" 
 />
    <glyph glyph-name="notequal" unicode="&#x2260;" horiz-adv-x="1011" 
 />
    <glyph glyph-name="lessequal" unicode="&#x2264;" horiz-adv-x="1011" 
 />
    <glyph glyph-name="greaterequal" unicode="&#x2265;" horiz-adv-x="1011" 
 />
    <glyph glyph-name="lozenge" unicode="&#x25ca;" horiz-adv-x="1132" 
d="M991 682l-399 -682h-152l-399 680l399 686h152zM514 264l246 418q-46 83 -102 177q-56 95 -76 130l-66 111l-80 -135q-98 -172 -166 -285z" />
    <glyph glyph-name="E.alt" unicode="&#xe000;" horiz-adv-x="956" 
d="M231 362v-155h666v-207h-874v1432h872v-207h-664v-660h650v-203h-650z" />
    <glyph glyph-name="Eacute.alt" unicode="&#xe001;" horiz-adv-x="956" 
d="M559 1505h-194l147 219h279zM231 362v-155h666v-207h-874v1432h872v-207h-664v-660h650v-203h-650z" />
    <glyph glyph-name="Egrave.alt" unicode="&#xe002;" horiz-adv-x="956" 
d="M610 1505h-194l-232 219h279zM231 207h666v-207h-874v1432h872v-207h-664v-660h650v-203h-650v-155z" />
    <glyph glyph-name="Ecircumflex.alt" unicode="&#xe003;" horiz-adv-x="954" 
d="M377 1505h-225l231 205h176l225 -205h-221l-98 80zM231 362v-155h666v-207h-874v1432h872v-207h-664v-660h650v-203h-650z" />
    <glyph glyph-name="Edieresis.alt" unicode="&#xe004;" horiz-adv-x="956" 
d="M665 1690q49 0 81 -27t32 -68t-35 -69t-81 -29q-46 0 -79 29q-34 28 -34 68t33 68t83 28zM293 1690q51 0 83 -27t32 -68t-33 -69t-82 -29q-49 0 -82 29q-33 28 -33 68t32 68t83 28zM231 207h666v-207h-874v1432h872v-207h-664v-660h650v-203h-650v-155z" />
    <glyph glyph-name="F.alt" unicode="&#xe005;" horiz-adv-x="940" 
d="M231 350v-350h-206v1432h854v-207h-648v-666h574v-209h-574z" />
    <glyph glyph-name="H.alt" unicode="&#xe006;" horiz-adv-x="1153" 
d="M238 1432v-879h606v879h209v-1432h-209v348h-606v-348h-207v1432h207z" />
    <glyph glyph-name="N.alt" unicode="&#xe007;" 
d="M901 1430h205v-1430h-205v711l-647 434v-1145h-209v1430h141l715 -490v490z" />
    <glyph glyph-name="Ntilde.alt" unicode="&#xe008;" 
d="M416 1460l-121 56q37 80 70 120q78 94 234 -18q29 -20 55 -12t40 63l129 -65q-59 -139 -131 -164q-59 -18 -152 54q-32 24 -66 20t-58 -54zM901 1430h205v-1430h-205v711l-647 434v-1145h-209v1430h141l715 -490v490z" />
    <glyph glyph-name="U.alt" unicode="&#xe009;" horiz-adv-x="1198" 
d="M43 72v1360h209v-1219q0 -18 91 -37t254 -13q294 9 294 50v1219h209v-1362q0 -59 -264 -85t-528 -1t-265 88z" />
    <glyph glyph-name="Uacute.alt" unicode="&#xe00a;" horiz-adv-x="1198" 
d="M633 1505h-195l148 219h278zM43 72v1360h209v-1219q0 -18 91 -37t254 -13q294 9 294 50v1219h209v-1362q0 -59 -264 -85t-528 -1t-265 88z" />
    <glyph glyph-name="Ugrave.alt" unicode="&#xe00b;" horiz-adv-x="1198" 
d="M707 1505h-195l-231 219h278zM43 1432h209v-1219q0 -33 160 -45t320 1t159 44v1219h209v-1362q0 -59 -264 -85t-528 -1t-265 88v1360z" />
    <glyph glyph-name="Ucircumflex.alt" unicode="&#xe00c;" horiz-adv-x="1198" 
d="M483 1505h-225l231 205h177l225 -205h-221l-99 80zM43 72v1360h209v-1219q0 -18 91 -37t254 -13q294 9 294 50v1219h209v-1362q0 -59 -264 -85t-528 -1t-265 88z" />
    <glyph glyph-name="Udieresis.alt" unicode="&#xe00d;" horiz-adv-x="1198" 
d="M763 1690q50 0 82 -27t32 -68t-35 -69t-81 -29q-46 0 -80 29q-34 28 -34 68t33 68t83 28zM391 1690q51 0 83 -27t32 -68t-33 -69t-82 -29q-49 0 -82 29q-33 28 -33 68t32 68t83 28zM43 1432h209v-1219q0 -33 160 -45t320 1t159 44v1219h209v-1362q0 -59 -264 -85t-528 -1
t-265 88v1360z" />
    <glyph glyph-name="Y.alt" unicode="&#xe00e;" horiz-adv-x="1214" 
d="M-55 1434h237l396 -789l374 789h234l-694 -1434h-230l199 414z" />
    <glyph glyph-name="Ydieresis.alt" unicode="&#xe00f;" horiz-adv-x="1210" 
d="M783 1686q50 0 82 -27t32 -68t-35 -69t-81 -29q-46 0 -80 29q-33 28 -33 68t32 68q33 28 83 28zM412 1686q51 0 83 -27q31 -27 31 -68t-32 -69t-82 -29q-49 0 -82 29q-33 28 -33 68t32 68t83 28zM199 1434l395 -789l375 789h233l-694 -1434h-229l198 414l-516 1020h238z
" />
    <glyph glyph-name="seven.alt" unicode="&#xe010;" horiz-adv-x="761" 
 />
    <glyph glyph-name="nine.alt" unicode="&#xe011;" horiz-adv-x="866" 
 />
    </font>
</defs>
</svg>
