<?xml version="1.0" standalone="no"?>
<!DOCTYPE svg PUBLIC "-//W3C//DTD SVG 1.1//EN" "http://www.w3.org/Graphics/SVG/1.1/DTD/svg11.dtd" >
<svg xmlns="http://www.w3.org/2000/svg">
<metadata>
Created by FontPrep 20130207 at Mon Dec 12 09:42:50 2016
 By Matthijs Openneer
Copyright (c) 2010 by Svetoslav Simov. All rights reserved.
</metadata>
<defs>
<font id="df838d10753ef83b07b73ceb962b3ea2" horiz-adv-x='1024' >
  <font-face 
    font-family="Code-Light"
    font-weight="300"
    font-stretch="normal"
    units-per-em="2048"
    panose-1="2 0 5 6 3 0 0 2 0 4"
    ascent="1434"
    descent="-614"
    x-height="1432"
    cap-height="1432"
    bbox="-18 -414 1804 1716"
    underline-thickness="0"
    underline-position="0"
    unicode-range="U+0020-FB02"
  />
<missing-glyph horiz-adv-x="989" 
d="M475 682l-409 612v-1226zM494 719l401 602h-801zM895 37l-401 608l-400 -608h801zM922 1294l-410 -612l410 -614v1226zM27 0v1358h934v-1358h-934z" />
    <glyph glyph-name="f_i" unicode="fi" horiz-adv-x="1374" 
d="M696 0v29h305v1403h336v-29h-305v-1374h305v-29h-641zM127 700v-700h-31v1432h772v-31h-741v-668h655v-33h-655z" />
    <glyph glyph-name="f_l" unicode="fl" horiz-adv-x="1830" 
d="M1034 1432v-1399h770v-33h-803v1432h33zM127 700v-700h-31v1432h772v-31h-741v-668h655v-33h-655z" />
    <glyph glyph-name=".notdef" horiz-adv-x="989" 
d="M475 682l-409 612v-1226zM494 719l401 602h-801zM895 37l-401 608l-400 -608h801zM922 1294l-410 -612l410 -614v1226zM27 0v1358h934v-1358h-934z" />
    <glyph glyph-name=".null" horiz-adv-x="0" 
 />
    <glyph glyph-name="nonmarkingreturn" horiz-adv-x="681" 
 />
    <glyph glyph-name="space" unicode=" " horiz-adv-x="720" 
 />
    <glyph glyph-name="exclam" unicode="!" horiz-adv-x="208" 
d="M106 53q33 0 33 -33q0 -12 -9 -21q-10 -9 -24 -9t-23 9t-9 21q-1 33 32 33zM90 1427h33v-1245h-33v1245z" />
    <glyph glyph-name="quotedbl" unicode="&#x22;" horiz-adv-x="346" 
d="M219 1436h33v-406h-33v406zM90 1436h33v-406h-33v406z" />
    <glyph glyph-name="dollar" unicode="$" horiz-adv-x="1083" 
d="M156 1255q-74 -90 -63 -221t96 -204q62 -51 209 -76q48 -8 126 -17v682q-249 -8 -368 -164zM553 702v-686q127 4 238 54t173 156q62 104 38 221t-99 165q-75 49 -162 65q-88 16 -188 25zM524 1571h29v-121q164 -2 296 -87t150 -241l-30 -6q-12 98 -80 172
q-121 127 -336 131v-684q242 -26 302 -58q106 -53 139 -113q24 -42 36 -95q31 -141 -36 -254q-68 -113 -186 -169t-255 -60v-133h-29v133q-243 9 -387 160q-76 81 -88 190l-2 14l33 4l2 -14q14 -148 148 -234t294 -90v691q-270 26 -361 103t-102 218q-13 140 59 234
q137 179 404 188v121z" />
    <glyph glyph-name="ampersand" unicode="&#x26;" horiz-adv-x="1171" 
d="M532 16q214 0 322 86t127 217v404h-469q-205 6 -309 -89q-103 -95 -115 -242q-12 -148 109 -262t335 -114zM512 754h664v-31h-164v-408q-22 -141 -136 -233t-344 -96t-361 120q-132 124 -116 300q12 112 80 202t207 125l66 6v4l-66 9q-215 70 -215 335q0 105 55 189
q102 156 326 178q223 22 363 -103q73 -65 96 -159l-31 -6q-20 86 -87 144q-130 112 -334 94t-305 -161q-52 -75 -52 -173q0 -144 84 -240t270 -96z" />
    <glyph glyph-name="quotesingle" unicode="'" horiz-adv-x="239" 
d="M102 1436h33v-406h-33v406z" />
    <glyph glyph-name="comma" unicode="," horiz-adv-x="215" 
d="M20 -195h-32l98 248h55z" />
    <glyph glyph-name="period" unicode="." horiz-adv-x="225" 
d="M82 31q0 41 39 41t39 -41q0 -13 -12 -25t-27 -12q-16 0 -28 11q-11 11 -11 26z" />
    <glyph glyph-name="zero" unicode="0" horiz-adv-x="1130" 
d="M565 -4q-145 0 -258 80t-172 208t-86 282t0 308t86 282t172 208t258 80t258 -80t172 -208t86 -282t0 -308t-86 -282t-172 -208t-258 -80zM565 1411q-159 0 -275 -102t-168 -256t-52 -333t52 -333t169 -256t275 -102t274 102q117 102 169 256t52 333t-52 333t-169 256
t-275 102z" />
    <glyph glyph-name="one" unicode="1" horiz-adv-x="485" 
d="M381 1434v-1434h-31v1339l6 58h-2l-28 -47l-306 -422l-22 16l350 490h33z" />
    <glyph glyph-name="two" unicode="2" horiz-adv-x="1042" 
d="M74 977h-29q0 189 126 325t351 136q224 0 354 -123t125 -299q-2 -219 -198 -383l-713 -600h899v-31h-944v31l733 622q184 160 191 355q4 164 -116 280t-331 117q-212 0 -330 -128t-118 -302z" />
    <glyph glyph-name="three" unicode="3" horiz-adv-x="1036" 
d="M498 16q127 0 227 39q176 69 228 240q44 141 -75 288q-52 62 -152 101t-228 39h-101v31h101q190 0 293 99q102 99 102 237q0 98 -52 173q-99 143 -306 160t-333 -93q-67 -58 -87 -144l-31 6q23 94 95 159q142 126 364 104q222 -23 325 -178q56 -83 56 -192t-67 -201
t-189 -132l-66 -9v-4l66 -4q145 -37 231 -127t96 -202q15 -166 -117 -293t-360 -127t-342 93q-115 93 -137 236l31 4q20 -131 128 -217t300 -86z" />
    <glyph glyph-name="four" unicode="4" horiz-adv-x="1032" 
d="M838 401v942l6 58h-2l-29 -47l-754 -953h779zM868 1438v-1037h133v-30h-133v-371h-30v371h-818v30l816 1037h32z" />
    <glyph glyph-name="five" unicode="5" horiz-adv-x="1040" 
d="M903 1432v-31h-801v-570q150 73 300 89t317 -41q133 -55 205 -167t73 -247q2 -189 -129 -327t-366 -138q-180 0 -298 84t-165 219l29 10q44 -127 154 -203t280 -77q221 0 343 128t120 304q0 121 -65 226t-185 157q-254 109 -606 -47l-37 18v613h831z" />
    <glyph glyph-name="six" unicode="6" horiz-adv-x="1058" 
d="M513 0q-151 0 -271 76t-167 186q-48 110 -39 237q9 126 79 228l501 709h39l-372 -527l-80 -94l2 -2l74 51q109 58 247 58t244 -52t162 -132q56 -81 81 -179q26 -99 0 -197t-81 -179q-56 -81 -162 -132t-257 -51zM528 889q-147 1 -256 -63q-206 -120 -206 -364t206 -366
q109 -63 256 -63t256 63q207 120 207 364q0 245 -207 365q-109 64 -256 64z" />
    <glyph glyph-name="seven" unicode="7" horiz-adv-x="1011" 
d="M23 1432h960v-33l-766 -1399h-39l766 1401h-921v31z" />
    <glyph glyph-name="eight" unicode="8" horiz-adv-x="1060" 
d="M530 -16q-144 0 -252 48q-201 89 -234 286q-34 197 119 331q79 70 193 99l88 6v4l-86 8q-122 41 -188 134t-66 204q2 172 129 266t313 94t298 -108q113 -108 112 -254q0 -111 -66 -204t-190 -132l-65 -8l-2 -4l67 -4q117 -29 196 -100q155 -140 124 -334t-237 -284
q-110 -48 -253 -48zM529 1434q-157 0 -275 -86t-119 -234t103 -246q104 -100 292 -100t291 99t103 248t-119 234t-276 85zM530 14q326 0 435 229q63 132 -2 270t-230 194q-90 31 -203 31q-326 -1 -434 -229q-63 -132 2 -270t230 -194q89 -31 202 -31z" />
    <glyph glyph-name="nine" unicode="9" horiz-adv-x="1064" 
d="M542 514q-138 0 -244 51t-163 132q-55 81 -81 179t0 197q26 98 81 180t161 133q106 52 258 52q150 0 270 -76t168 -186t39 -238q-9 -127 -79 -227l-501 -711h-37l370 526l80 97h-2l-74 -52q-108 -57 -246 -57zM546 547q120 0 220 47t153 123q52 76 75 167q24 91 0 183
t-75 168q-53 76 -153 123t-220 47q-333 0 -442 -271q-63 -155 2 -319q66 -164 230 -231q90 -37 210 -37z" />
    <glyph glyph-name="colon" unicode=":" horiz-adv-x="245" 
d="M82 700q0 41 39 41t39 -41q0 -14 -12 -25t-27 -11q-16 0 -28 11q-11 11 -11 25zM82 31q0 41 39 41t39 -41q0 -13 -12 -25t-27 -12q-16 0 -28 11q-11 11 -11 26z" />
    <glyph glyph-name="semicolon" unicode=";" horiz-adv-x="245" 
d="M2 -195l96 248h58l-121 -248h-33zM82 700q0 41 39 41t39 -41q0 -14 -12 -25t-27 -11q-16 0 -28 11q-11 11 -11 25z" />
    <glyph glyph-name="question" unicode="?" horiz-adv-x="985" 
d="M455 53q12 0 21 -9q9 -8 9 -22t-9 -23t-22 -9t-23 9q-9 9 -9 21q0 33 33 33zM438 182v236q0 104 73 164q40 33 66 48q27 15 93 50q66 36 108 66t80 99q39 69 41 159q4 164 -116 280t-330 117q-147 0 -249 -65t-155 -171q-21 7 -26 15q53 116 163 184t267 68
q223 0 353 -125t126 -292t-90 -251q-45 -43 -80 -66t-110 -64t-117 -73q-42 -33 -54 -67t-12 -78l2 -234h-33z" />
    <glyph glyph-name="A" unicode="A" 
d="M1159 0l-196 481h-725l-195 -481h-35l576 1454h34l576 -1454h-35zM600 1411l-348 -899h698z" />
    <glyph glyph-name="B" unicode="B" horiz-adv-x="1150" 
d="M129 750v-719h604q109 0 190 53q152 99 152 305t-152 307q-81 53 -190 54h-604zM676 1432q112 0 188 -56t113 -147q51 -137 0 -277q-51 -129 -168 -178q100 -18 172 -83q136 -123 123 -332t-173 -307q-85 -52 -198 -52h-637v1432h580zM129 1399v-617h547q199 0 272 183
q49 125 0 252q-74 182 -272 182h-547z" />
    <glyph glyph-name="C" unicode="C" horiz-adv-x="1454" 
d="M756 1397q-278 0 -474 -202q-196 -201 -196 -481t197 -482t473 -202t473 203q90 92 135 199h35q-51 -125 -148 -223q-205 -211 -495 -211t-496 211q-205 211 -205 505t205 505t496 211t495 -211q97 -99 148 -224h-35q-47 111 -135 201q-195 201 -473 201z" />
    <glyph glyph-name="D" unicode="D" horiz-adv-x="1333" 
d="M94 1432h484q170 0 307 -62t222 -162t131 -229t46 -263t-46 -263q-99 -277 -353 -392q-137 -61 -307 -61h-484v1432zM125 31h453q162 0 294 58q132 57 212 155q81 98 125 221t44 251t-44 251t-125 220t-213 155t-293 59h-453v-1370z" />
    <glyph glyph-name="E" unicode="E" horiz-adv-x="944" 
d="M129 700v-669h762v-31h-795v1432h791v-31h-758v-668h741v-33h-741z" />
    <glyph glyph-name="F" unicode="F" horiz-adv-x="903" 
d="M127 700v-700h-31v1432h772v-31h-741v-668h655v-33h-655z" />
    <glyph glyph-name="G" unicode="G" horiz-adv-x="1484" 
d="M88 712q0 -284 196 -490t474 -206q218 0 412 154t233 377h-633v33h674q-6 -70 -35 -144q-71 -194 -263 -324t-388 -130q-291 0 -497 216t-206 515t205 516t498 217q215 0 394 -120t249 -322h-35q-72 188 -240 299t-368 110q-274 0 -475 -207q-195 -210 -195 -494z" />
    <glyph glyph-name="H" unicode="H" horiz-adv-x="1153" 
d="M127 1432v-691h899v691h33v-1432h-33v711h-899v-711h-31v1432h31z" />
    <glyph glyph-name="I" unicode="I" horiz-adv-x="698" 
d="M670 1432v-29h-305v-1372h305v-31h-641v31h305v1372h-305v29h641z" />
    <glyph glyph-name="J" unicode="J" horiz-adv-x="808" 
d="M719 1432v-826q0 -298 -195 -452t-504 -154v33q297 0 483 144q185 144 185 429v797h-442v29h473z" />
    <glyph glyph-name="K" unicode="K" horiz-adv-x="976" 
d="M174 700v33l713 699h41l-725 -713l813 -719h-47zM96 1432h31v-1432h-31v1432z" />
    <glyph glyph-name="L" unicode="L" horiz-adv-x="931" 
d="M129 1432v-1399h770v-33h-803v1432h33z" />
    <glyph glyph-name="M" unicode="M" horiz-adv-x="1447" 
d="M127 0h-31v1434h33l594 -879l596 879h33v-1434h-31v1386l-584 -868h-26l-584 868v-1386z" />
    <glyph glyph-name="N" unicode="N" 
d="M129 0h-33v1436l29 -2l952 -1377v1377h31v-1434h-33l-946 1368v-1368z" />
    <glyph glyph-name="O" unicode="O" horiz-adv-x="1552" 
d="M43 717q0 301 213 519t518 218t519 -218t214 -519t-214 -519t-519 -218t-518 218t-213 519zM1473 717q0 289 -204 497t-494 207q-291 0 -495 -209q-204 -210 -204 -496t205 -495t495 -209t493 208q204 208 204 497z" />
    <glyph glyph-name="P" unicode="P" horiz-adv-x="1067" 
d="M129 575h463q96 0 174 36q78 35 126 93q101 121 100 286q-1 164 -100 282q-48 57 -126 93t-174 36h-463v-826zM96 0v1434h496q104 0 188 -38t135 -100t79 -143q28 -80 28 -164t-28 -164t-79 -142t-135 -100t-188 -38h-463v-545h-33z" />
    <glyph glyph-name="Q" unicode="Q" horiz-adv-x="1568" 
d="M51 717q0 301 213 519t518 218t519 -218t214 -519t-215 -520l222 -197h-54l-194 172q-205 -192 -501 -192t-509 218t-213 519zM1483 715q0 289 -205 497t-495 209q-291 0 -495 -209q-204 -210 -204 -496t205 -495t483 -209t477 183l-432 383h49l408 -361q209 209 209 498
z" />
    <glyph glyph-name="R" unicode="R" horiz-adv-x="1079" 
d="M127 1401v-1401h-31v1434h496q137 0 237 -62q191 -119 191 -357q0 -237 -191 -357q-100 -62 -237 -62h-232l660 -596h-47l-660 596v31h279q127 0 220 57q177 108 177 330q0 221 -177 329q-93 57 -220 58h-465z" />
    <glyph glyph-name="S" unicode="S" horiz-adv-x="1124" 
d="M563 16q207 0 355 123q147 123 106 324q-18 86 -78 137q-60 52 -142 70q-81 18 -176 27q-94 9 -186 23t-170 41q-78 29 -128 97t-60 190t70 226q102 133 297 169t373 -49t200 -272l-31 -6q-12 98 -80 172q-127 135 -358 131q-111 -2 -212 -43t-163 -121q-74 -89 -64 -205
t59 -178q50 -62 127 -88q77 -24 169 -36t186 -22q95 -10 177 -31q82 -22 142 -78q60 -57 83 -157t-13 -194q-64 -168 -283 -247q-97 -34 -202 -33q-174 0 -322 94t-165 256l-2 14l32 4l2 -14q16 -152 156 -238t301 -86z" />
    <glyph glyph-name="T" unicode="T" horiz-adv-x="1067" 
d="M545 -6h-31v1407h-496v33h1022v-33h-495v-1407z" />
    <glyph glyph-name="U" unicode="U" horiz-adv-x="1206" 
d="M102 389v1043h33v-1045q-1 -174 143 -272q144 -99 326 -99t326 100t143 273v1043h33v-1045q0 -125 -78 -220q-150 -183 -424 -183q-194 0 -348 108t-154 297z" />
    <glyph glyph-name="V" unicode="V" horiz-adv-x="1208" 
d="M604 18l559 1414h35l-575 -1455h-35l-576 1455h35z" />
    <glyph glyph-name="W" unicode="W" horiz-adv-x="1742" 
d="M1223 -14l-355 1001l-352 -1001h-29l-479 1446h33l461 -1393l344 975h45l344 -975l463 1393h33l-480 -1446h-28z" />
    <glyph glyph-name="X" unicode="X" horiz-adv-x="1110" 
d="M20 1432h39l498 -689l500 689h37l-519 -717l519 -715h-37l-500 688l-498 -688h-39l519 715z" />
    <glyph glyph-name="Y" unicode="Y" horiz-adv-x="1103" 
d="M567 0h-32v592l-527 840h39l504 -807l504 807h39l-527 -840v-592z" />
    <glyph glyph-name="Z" unicode="Z" horiz-adv-x="1132" 
d="M66 1399v33h1011l23 -37l-1039 -1364h1043v-31h-1065l-19 29l1041 1370h-995z" />
    <glyph glyph-name="grave" unicode="`" horiz-adv-x="503" 
d="M326 1487h-39l-135 153h55z" />
    <glyph glyph-name="a" unicode="a" 
d="M1159 0l-196 481h-725l-195 -481h-35l576 1454h34l576 -1454h-35zM600 1411l-348 -899h698z" />
    <glyph glyph-name="b" unicode="b" horiz-adv-x="1150" 
d="M129 750v-719h604q109 0 190 53q152 99 152 305t-152 307q-81 53 -190 54h-604zM676 1432q112 0 188 -56t113 -147q51 -137 0 -277q-51 -129 -168 -178q100 -18 172 -83q136 -123 123 -332t-173 -307q-85 -52 -198 -52h-637v1432h580zM129 1399v-617h547q199 0 272 183
q49 125 0 252q-74 182 -272 182h-547z" />
    <glyph glyph-name="c" unicode="c" horiz-adv-x="1458" 
d="M756 1397q-278 0 -474 -202q-196 -201 -196 -481t197 -482t473 -202t473 203q90 92 135 199h35q-51 -125 -148 -223q-205 -211 -495 -211t-496 211q-205 211 -205 505t205 505t496 211t495 -211q97 -99 148 -224h-35q-47 111 -135 201q-195 201 -473 201z" />
    <glyph glyph-name="d" unicode="d" horiz-adv-x="1333" 
d="M94 1432h484q170 0 307 -62t222 -162t131 -229t46 -263t-46 -263q-99 -277 -353 -392q-137 -61 -307 -61h-484v1432zM125 31h453q162 0 294 58q132 57 212 155q81 98 125 221t44 251t-44 251t-125 220t-213 155t-293 59h-453v-1370z" />
    <glyph glyph-name="e" unicode="e" horiz-adv-x="944" 
d="M129 700v-669h762v-31h-795v1432h791v-31h-758v-668h741v-33h-741z" />
    <glyph glyph-name="f" unicode="f" horiz-adv-x="903" 
d="M127 700v-700h-31v1432h772v-31h-741v-668h655v-33h-655z" />
    <glyph glyph-name="g" unicode="g" horiz-adv-x="1476" 
d="M88 712q0 -284 196 -490t474 -206q218 0 412 154t233 377h-633v33h674q-6 -70 -35 -144q-71 -194 -263 -324t-388 -130q-291 0 -497 216t-206 515t205 516t498 217q215 0 394 -120t249 -322h-35q-72 188 -240 299t-368 110q-274 0 -475 -207q-195 -210 -195 -494z" />
    <glyph glyph-name="h" unicode="h" horiz-adv-x="1153" 
d="M127 1432v-691h899v691h33v-1432h-33v711h-899v-711h-31v1432h31z" />
    <glyph glyph-name="i" unicode="i" horiz-adv-x="737" 
d="M690 1432v-29h-305v-1372h305v-31h-641v31h305v1372h-305v29h641z" />
    <glyph glyph-name="j" unicode="j" horiz-adv-x="806" 
d="M713 1432v-826q0 -298 -195 -452t-504 -154v33q297 0 483 144q185 144 185 429v797h-442v29h473z" />
    <glyph glyph-name="k" unicode="k" horiz-adv-x="976" 
d="M174 700v33l748 699h41l-760 -713l794 -719h-47zM96 1432h31v-1432h-31v1432z" />
    <glyph glyph-name="l" unicode="l" horiz-adv-x="931" 
d="M129 1432v-1399h770v-33h-803v1432h33z" />
    <glyph glyph-name="m" unicode="m" horiz-adv-x="1447" 
d="M127 0h-31v1434h33l594 -879l596 879h33v-1434h-31v1386l-584 -868h-26l-584 868v-1386z" />
    <glyph glyph-name="n" unicode="n" 
d="M129 0h-33v1436l29 -2l952 -1377v1377h31v-1434h-33l-946 1368v-1368z" />
    <glyph glyph-name="o" unicode="o" horiz-adv-x="1576" 
d="M59 717q0 301 213 519q212 218 518 218t520 -218t214 -519t-214 -519t-519 -218t-519 218t-213 519zM1489 717q0 289 -204 497q-203 208 -493 207q-290 0 -495 -209q-205 -210 -205 -496t205 -495t495 -209t494 208t203 497z" />
    <glyph glyph-name="p" unicode="p" horiz-adv-x="1075" 
d="M129 575h463q96 0 174 36q78 35 126 93q101 121 100 286q-1 164 -100 282q-48 57 -126 93t-174 36h-463v-826zM96 0v1434h496q104 0 188 -38t135 -100t79 -143q28 -80 28 -164t-28 -164t-79 -142t-135 -100t-188 -38h-463v-545h-33z" />
    <glyph glyph-name="q" unicode="q" horiz-adv-x="1568" 
d="M43 717q0 303 215 520t517 217t519 -216t217 -517t-219 -524l221 -197h-53l-194 172q-205 -192 -499 -192t-509 217t-215 520zM1475 717q0 291 -206 497t-495 207q-290 0 -494 -208q-204 -209 -204 -497t205 -496t483 -208t477 183l-432 383h49l408 -361q209 209 209 500
z" />
    <glyph glyph-name="r" unicode="r" horiz-adv-x="1083" 
d="M127 1401v-1401h-31v1434h496q137 0 237 -62q191 -119 191 -357q0 -237 -191 -357q-100 -62 -237 -62h-232l660 -596h-47l-660 596v31h279q127 0 220 57q177 108 177 330q0 221 -177 329q-93 57 -220 58h-465z" />
    <glyph glyph-name="s" unicode="s" horiz-adv-x="1114" 
d="M547 16q207 0 354 123t107 324q-18 86 -78 137q-60 52 -142 70t-177 27t-186 23t-169 41q-78 29 -128 97t-60 190t69 226q102 133 297 169t374 -49t200 -272l-31 -6q-12 98 -80 172q-127 135 -358 131q-111 -2 -212 -43t-163 -121q-74 -89 -65 -205t59 -178t128 -88
q77 -24 168 -36t185 -22t176 -31q82 -22 142 -78q60 -57 83 -157t-12 -194q-63 -169 -282 -247q-97 -34 -201 -33q-174 0 -323 94q-148 94 -165 256l-2 14l33 4l2 -14q16 -152 156 -238t301 -86z" />
    <glyph glyph-name="t" unicode="t" horiz-adv-x="1067" 
d="M545 0h-31v1401h-496v33h1022v-33h-495v-1401z" />
    <glyph glyph-name="u" unicode="u" horiz-adv-x="1191" 
d="M94 389v1043h33v-1045q0 -174 143 -272q144 -99 326 -99t326 100t143 273v1043h33v-1045q0 -125 -78 -220q-150 -183 -424 -183q-194 0 -348 108t-154 297z" />
    <glyph glyph-name="v" unicode="v" horiz-adv-x="1208" 
d="M604 18l559 1414h35l-575 -1455h-35l-576 1455h35z" />
    <glyph glyph-name="w" unicode="w" horiz-adv-x="1742" 
d="M1223 -14l-355 1001l-352 -1001h-29l-479 1446h33l461 -1393l344 975h45l344 -975l463 1393h33l-480 -1446h-28z" />
    <glyph glyph-name="x" unicode="x" horiz-adv-x="1110" 
d="M20 1432h39l498 -689l500 689h37l-519 -717l519 -715h-37l-500 688l-498 -688h-39l519 715z" />
    <glyph glyph-name="y" unicode="y" horiz-adv-x="1103" 
d="M567 0h-32v592l-527 840h39l504 -807l504 807h39l-527 -840v-592z" />
    <glyph glyph-name="z" unicode="z" horiz-adv-x="1134" 
d="M66 1399v33h1011l21 -37l-1037 -1364h1043v-31h-1065l-19 29l1041 1370h-995z" />
    <glyph glyph-name="uni00A0" unicode="&#xa0;" horiz-adv-x="409" 
 />
    <glyph glyph-name="exclamdown" unicode="&#xa1;" horiz-adv-x="221" 
d="M106 1364q-33 0 -32 33q0 12 9 21t23 9t24 -9t9 -21q0 -33 -33 -33zM90 -10v1245h33v-1245h-33z" />
    <glyph glyph-name="yen" unicode="&#xa5;" horiz-adv-x="1103" 
d="M313 461v31h222v96h-222v33h203l-508 811h39l504 -807l504 807h39l-508 -811h229v-33h-248v-96h248v-31h-248v-461h-32v461h-222z" />
    <glyph glyph-name="dieresis" unicode="&#xa8;" horiz-adv-x="628" 
d="M440 1606q39 0 39 -41q0 -13 -11 -25q-12 -12 -28 -12t-27 11t-12 26q0 41 39 41zM192 1606q39 0 39 -41q0 -13 -11 -25q-12 -12 -28 -12t-27 11t-11 26q-1 41 38 41z" />
    <glyph glyph-name="acute" unicode="&#xb4;" horiz-adv-x="503" 
d="M201 1479h-39l119 153h55z" />
    <glyph glyph-name="periodcentered" unicode="&#xb7;" horiz-adv-x="337" 
d="M127 674q0 41 39 41t39 -41q0 -14 -11 -26q-12 -12 -28 -11q-16 0 -28 11q-11 11 -11 26z" />
    <glyph glyph-name="questiondown" unicode="&#xbf;" horiz-adv-x="995" 
d="M535 1368q-12 0 -22 9q-9 9 -9 23t9 22q9 10 23 10t22 -10q9 -10 9 -21q1 -33 -32 -33zM551 1239v-235q0 -107 -73 -164q-40 -33 -66 -48q-26 -14 -92 -50t-108 -66t-81 -100q-39 -68 -41 -158q-4 -164 116 -281t331 -117q147 0 249 65t154 171q12 -4 27 -14
q-53 -115 -163 -184t-267 -68q-223 0 -354 125q-130 125 -126 291t90 251q45 43 80 66t108 62t117 74q44 34 56 68t12 79l-2 233h33z" />
    <glyph glyph-name="Agrave" unicode="&#xc0;" 
d="M618 1505h-38l-136 154h56zM1159 0l-196 481h-725l-195 -481h-35l576 1454h34l576 -1454h-35zM600 1411l-348 -899h698z" />
    <glyph glyph-name="Aacute" unicode="&#xc1;" 
d="M621 1505h-39l118 154h56zM1159 0l-196 481h-725l-195 -481h-35l576 1454h34l576 -1454h-35zM600 1411l-348 -899h698z" />
    <glyph glyph-name="Acircumflex" unicode="&#xc2;" 
d="M487 1501h-32l118 148h56l119 -148h-33l-113 123zM1159 0l-196 481h-725l-195 -481h-35l576 1454h34l576 -1454h-35zM600 1411l-348 -899h698z" />
    <glyph glyph-name="Atilde" unicode="&#xc3;" 
d="M451 1509l-25 7q14 61 61 79q72 29 138 -41q37 -39 88 -22q43 18 51 59l22 -6q-14 -61 -65 -80q-63 -27 -117 29t-110 35q-35 -15 -43 -60zM1159 0l-196 481h-725l-195 -481h-35l576 1454h34l576 -1454h-35zM600 1411l-348 -899h698z" />
    <glyph glyph-name="Adieresis" unicode="&#xc4;" 
d="M686 1567q0 41 39 41t39 -41q0 -13 -11 -25t-27 -12t-29 11q-11 11 -11 26zM477 1608q39 0 39 -41q0 -13 -11 -25t-27 -12t-28 11q-11 11 -12 26q0 41 39 41zM1159 0l-196 481h-725l-195 -481h-35l576 1454h34l576 -1454h-35zM600 1411l-348 -899h698z" />
    <glyph glyph-name="Aring" unicode="&#xc5;" 
d="M532 1536q0 -29 20 -48q20 -20 47 -20q28 0 47 20t20 48q0 29 -20 48q-20 20 -47 20t-47 -20t-20 -48zM496 1536q0 43 29 74q30 30 73 30t74 -30q30 -30 30 -75t-25 -69t-51 -31l568 -1435h-35l-196 481h-725l-195 -481h-35l568 1434q-28 6 -54 32t-26 70zM600 1411
l-348 -899h698z" />
    <glyph glyph-name="AE" unicode="&#xc6;" horiz-adv-x="1695" 
d="M883 614v789h-52l-442 -789h494zM915 584v-553h762v-31h-794v584h-510l-330 -584h-35l803 1434h862v-31h-758v-789h742v-30h-742z" />
    <glyph glyph-name="Ccedilla" unicode="&#xc7;" horiz-adv-x="1431" 
d="M872 -258q0 105 -202 131l57 125q-279 10 -477 216t-199 500q0 294 205 505t496 211t495 -211q97 -99 148 -224h-35q-47 111 -135 201q-195 201 -473 201t-474 -202q-196 -201 -196 -481t197 -482t473 -202t473 203q90 92 135 199h35q-51 -125 -148 -223
q-201 -209 -489 -211l-47 -102q67 -6 121 -39q70 -43 71 -116q0 -73 -78 -118q-61 -37 -121 -37t-104 17q-90 35 -104 104l28 6q6 -16 8 -20q16 -35 64 -55t106 -20t114 33q56 34 56 91z" />
    <glyph glyph-name="Egrave" unicode="&#xc8;" horiz-adv-x="901" 
d="M555 1507h-39l-135 154h55zM129 31h762v-31h-795v1432h791v-31h-758v-668h741v-33h-741v-669z" />
    <glyph glyph-name="Eacute" unicode="&#xc9;" horiz-adv-x="901" 
d="M485 1503h-39l119 154h56zM129 700v-669h762v-31h-795v1432h791v-31h-758v-668h741v-33h-741z" />
    <glyph glyph-name="Ecircumflex" unicode="&#xca;" horiz-adv-x="901" 
d="M401 1497h-32l118 148h56l119 -148h-33l-113 123zM129 700v-669h762v-31h-795v1432h791v-31h-758v-668h741v-33h-741z" />
    <glyph glyph-name="Edieresis" unicode="&#xcb;" horiz-adv-x="901" 
d="M594 1561q0 41 39 41t39 -41q0 -13 -12 -25t-27 -12q-16 0 -28 11q-11 11 -11 26zM346 1561q0 41 39 41t39 -41q0 -13 -11 -25t-27 -12t-29 11q-11 11 -11 26zM129 31h762v-31h-795v1432h791v-31h-758v-668h741v-33h-741v-669z" />
    <glyph glyph-name="Igrave" unicode="&#xcc;" horiz-adv-x="698" 
d="M373 1507h-39l-135 154h55zM670 1403h-305v-1372h305v-31h-641v31h305v1372h-305v29h641v-29z" />
    <glyph glyph-name="Iacute" unicode="&#xcd;" horiz-adv-x="698" 
d="M367 1505h-39l118 154h56zM670 1432v-29h-305v-1372h305v-31h-641v31h305v1372h-305v29h641z" />
    <glyph glyph-name="Icircumflex" unicode="&#xce;" horiz-adv-x="698" 
d="M236 1501h-33l119 148h55l119 -148h-33l-113 123zM670 1432v-29h-305v-1372h305v-31h-641v31h305v1372h-305v29h641z" />
    <glyph glyph-name="Idieresis" unicode="&#xcf;" horiz-adv-x="698" 
d="M436 1565q0 41 39 41t39 -41q0 -13 -11 -25t-27 -12t-29 11q-11 11 -11 26zM227 1606q39 0 39 -41q0 -13 -11 -25t-27 -12t-28 11q-11 11 -12 26q0 41 39 41zM670 1403h-305v-1372h305v-31h-641v31h305v1372h-305v29h641v-29z" />
    <glyph glyph-name="Ntilde" unicode="&#xd1;" 
d="M463 1520l-25 6q14 61 62 80q72 29 137 -41q37 -39 88 -23q43 18 51 60l23 -7q-14 -61 -66 -79q-63 -27 -117 29t-110 34q-35 -14 -43 -59zM129 0h-33v1436l29 -2l952 -1377v1377h31v-1434h-33l-946 1368v-1368z" />
    <glyph glyph-name="Ograve" unicode="&#xd2;" horiz-adv-x="1540" 
d="M799 1522h-39l-135 153h55zM39 717q0 301 213 519t518 218t519 -218t214 -519t-214 -519t-519 -218t-518 218t-213 519zM1468 717q0 289 -204 497t-493 207q-290 0 -495 -209q-204 -210 -204 -496t204 -495t495 -209q289 0 493 208t204 497z" />
    <glyph glyph-name="Oacute" unicode="&#xd3;" horiz-adv-x="1540" 
d="M801 1524h-39l119 153h55zM39 717q0 301 213 519t518 218t519 -218t214 -519t-214 -519t-519 -218t-518 218t-213 519zM1468 717q0 289 -204 497t-493 207q-290 0 -495 -209q-204 -210 -204 -496t204 -495t495 -209q289 0 493 208t204 497z" />
    <glyph glyph-name="Ocircumflex" unicode="&#xd4;" horiz-adv-x="1540" 
d="M657 1511h-32l118 148h56l119 -148h-33l-113 123zM39 717q0 301 213 519t518 218t519 -218t214 -519t-214 -519t-519 -218t-518 218t-213 519zM1468 717q0 289 -204 497t-493 207q-290 0 -495 -209q-204 -210 -204 -496t204 -495t495 -209q289 0 493 208t204 497z" />
    <glyph glyph-name="Otilde" unicode="&#xd5;" horiz-adv-x="1540" 
d="M623 1530l-25 6q14 61 61 80q72 29 138 -41q37 -39 88 -23q43 18 51 60l22 -6q-14 -61 -65 -80q-63 -27 -117 29t-110 34q-35 -14 -43 -59zM39 717q0 301 213 519t518 218t519 -218t214 -519t-214 -519t-519 -218t-518 218t-213 519zM1468 717q0 289 -204 497t-493 207
q-290 0 -495 -209q-204 -210 -204 -496t204 -495t495 -209q289 0 493 208t204 497z" />
    <glyph glyph-name="Odieresis" unicode="&#xd6;" horiz-adv-x="1540" 
d="M854 1573q0 41 39 41t39 -41q0 -13 -11 -25t-27 -12t-29 11q-11 11 -11 26zM606 1573q0 41 39 41t39 -41q0 -13 -11 -25t-27 -12t-29 11q-11 11 -11 26zM39 717q0 301 213 519t518 218t519 -218t214 -519t-214 -519t-519 -218t-518 218t-213 519zM1468 717
q0 289 -204 497t-493 207q-290 0 -495 -209q-204 -210 -204 -496t204 -495t495 -209q289 0 493 208t204 497z" />
    <glyph glyph-name="Oslash" unicode="&#xd8;" horiz-adv-x="1540" 
d="M770 1421q-289 0 -494 -209q-204 -210 -204 -496t204 -495q47 -51 101 -86l756 1184q-166 102 -363 102zM1468 717q0 289 -202 495q-61 57 -105 86l-755 -1181q164 -104 364 -105q290 0 494 208t204 497zM1503 717q0 -301 -214 -519t-519 -218q-211 0 -383 108l-102 -160
h-39l112 178q-61 45 -104 91q-215 219 -215 520t213 519t518 218q209 0 381 -108l96 151h41l-108 -170q323 -232 323 -610z" />
    <glyph glyph-name="Ugrave" unicode="&#xd9;" horiz-adv-x="1191" 
d="M664 1505h-39l-136 154h56zM94 389v1043h33v-1045q0 -174 143 -272q144 -99 326 -99t326 100t143 273v1043h33v-1045q0 -125 -78 -220q-150 -183 -424 -183q-194 0 -348 108t-154 297z" />
    <glyph glyph-name="Uacute" unicode="&#xda;" horiz-adv-x="1191" 
d="M604 1505h-39l119 154h55zM94 389v1043h33v-1045q0 -174 143 -272q144 -99 326 -99t326 100t143 273v1043h33v-1045q0 -125 -78 -220q-150 -183 -424 -183q-194 0 -348 108t-154 297z" />
    <glyph glyph-name="Ucircumflex" unicode="&#xdb;" horiz-adv-x="1191" 
d="M485 1501h-32l118 148h56l118 -148h-32l-113 123zM94 389v1043h33v-1045q0 -174 143 -272q144 -99 326 -99t326 100t143 273v1043h33v-1045q0 -125 -78 -220q-150 -183 -424 -183q-194 0 -348 108t-154 297z" />
    <glyph glyph-name="Udieresis" unicode="&#xdc;" horiz-adv-x="1191" 
d="M741 1606q39 0 39 -41q0 -13 -11 -25t-27 -12t-28 11q-11 11 -12 26q0 41 39 41zM455 1565q0 41 39 41t38 -41q0 -13 -11 -25t-27 -12t-28 11q-11 11 -11 26zM94 389v1043h33v-1045q0 -174 143 -272q144 -99 326 -99t326 100t143 273v1043h33v-1045q0 -125 -78 -220
q-150 -183 -424 -183q-194 0 -348 108t-154 297z" />
    <glyph glyph-name="Yacute" unicode="&#xdd;" horiz-adv-x="1103" 
d="M551 1485h-39l119 153h55zM567 0h-32v592l-527 840h39l504 -807l504 807h39l-527 -840v-592z" />
    <glyph glyph-name="agrave" unicode="&#xe0;" 
d="M627 1497h-39l-135 154h55zM1159 0l-196 481h-725l-195 -481h-35l576 1454h34l576 -1454h-35zM600 1411l-348 -899h698z" />
    <glyph glyph-name="aacute" unicode="&#xe1;" 
d="M616 1493h-38l118 154h56zM1159 0l-196 481h-725l-195 -481h-35l576 1454h34l576 -1454h-35zM600 1411l-348 -899h698z" />
    <glyph glyph-name="acircumflex" unicode="&#xe2;" 
d="M487 1489h-32l118 147h56l119 -147h-33l-113 123zM1159 0l-196 481h-725l-195 -481h-35l576 1454h34l576 -1454h-35zM600 1411l-348 -899h698z" />
    <glyph glyph-name="atilde" unicode="&#xe3;" 
d="M446 1503l-24 6q14 61 61 80q72 29 138 -41q37 -39 88 -22q43 18 51 59l22 -6q-14 -61 -65 -80q-63 -27 -117 29t-111 35q-35 -15 -43 -60zM1159 0l-196 481h-725l-195 -481h-35l576 1454h34l576 -1454h-35zM600 1411l-348 -899h698z" />
    <glyph glyph-name="adieresis" unicode="&#xe4;" 
d="M686 1565q0 41 39 41t39 -41q0 -13 -11 -25t-27 -12t-29 11q-11 11 -11 26zM477 1606q39 0 39 -41q0 -13 -11 -25t-27 -12t-28 11q-11 11 -12 26q0 41 39 41zM1159 0l-196 481h-725l-195 -481h-35l576 1454h34l576 -1454h-35zM600 1411l-348 -899h698z" />
    <glyph glyph-name="aring" unicode="&#xe5;" 
d="M537 1540q0 -29 19 -48t47 -19t47 19t20 48q0 29 -20 48q-20 20 -47 20q-28 0 -47 -20t-19 -48zM500 1540q0 43 29 74q30 31 73 31t74 -31t31 -75q-1 -43 -27 -69t-55 -32l569 -1438h-35l-196 481h-725l-195 -481h-35l569 1438q-27 6 -52 32t-25 70zM600 1411l-348 -899
h698z" />
    <glyph glyph-name="ae" unicode="&#xe6;" horiz-adv-x="1695" 
d="M883 614v789h-52l-442 -789h494zM915 584v-553h762v-31h-794v584h-510l-330 -584h-35l803 1434h862v-31h-758v-789h742v-30h-742z" />
    <glyph glyph-name="ccedilla" unicode="&#xe7;" horiz-adv-x="1349" 
d="M793 -137q77 -47 77 -120t-69 -114t-129 -41t-105 17q-90 35 -104 104l29 6q6 -16 8 -20q16 -35 63 -55t105 -20t116 33q56 34 56 91q0 105 -203 131l55 123q-288 4 -490 213t-202 503t205 505t495 211t496 -211q96 -98 147 -224h-34q-47 111 -135 201q-195 201 -474 201
q-278 0 -474 -202q-196 -201 -196 -481t198 -482q196 -202 472 -202t474 203q90 92 135 199h34q-51 -125 -147 -223q-195 -203 -471 -211l-47 -100q68 -6 115 -35z" />
    <glyph glyph-name="egrave" unicode="&#xe8;" horiz-adv-x="901" 
d="M545 1509h-39l-135 154h55zM129 31h762v-31h-795v1432h791v-31h-758v-668h741v-33h-741v-669z" />
    <glyph glyph-name="eacute" unicode="&#xe9;" horiz-adv-x="901" 
d="M502 1505h-39l119 154h55zM129 700v-669h762v-31h-795v1432h791v-31h-758v-668h741v-33h-741z" />
    <glyph glyph-name="ecircumflex" unicode="&#xea;" horiz-adv-x="901" 
d="M406 1501h-33l119 148h55l119 -148h-33l-113 123zM129 700v-669h762v-31h-795v1432h791v-31h-758v-668h741v-33h-741z" />
    <glyph glyph-name="edieresis" unicode="&#xeb;" horiz-adv-x="901" 
d="M604 1563q0 41 39 41t39 -41q0 -13 -11 -25t-27 -12t-29 11q-11 11 -11 26zM395 1604q39 0 39 -41q0 -13 -11 -25t-27 -12t-28 11q-11 11 -12 26q0 41 39 41zM129 31h762v-31h-795v1432h791v-31h-758v-668h741v-33h-741v-669z" />
    <glyph glyph-name="igrave" unicode="&#xec;" horiz-adv-x="698" 
d="M377 1505h-39l-135 154h55zM670 1403h-305v-1372h305v-31h-641v31h305v1372h-305v29h641v-29z" />
    <glyph glyph-name="iacute" unicode="&#xed;" horiz-adv-x="698" 
d="M367 1507h-39l118 154h56zM670 1432v-29h-305v-1372h305v-31h-641v31h305v1372h-305v29h641z" />
    <glyph glyph-name="icircumflex" unicode="&#xee;" horiz-adv-x="698" 
d="M238 1503h-33l119 148h55l119 -148h-33l-113 123zM670 1432v-29h-305v-1372h305v-31h-641v31h305v1372h-305v29h641z" />
    <glyph glyph-name="idieresis" unicode="&#xef;" horiz-adv-x="698" 
d="M436 1565q0 41 39 41t39 -41q0 -13 -11 -25t-27 -12t-29 11q-11 11 -11 26zM227 1606q39 0 39 -41q0 -13 -11 -25t-27 -12t-28 11q-11 11 -12 26q0 41 39 41zM670 1403h-305v-1372h305v-31h-641v31h305v1372h-305v29h641v-29z" />
    <glyph glyph-name="ntilde" unicode="&#xf1;" 
d="M459 1524l-25 6q14 61 62 80q72 29 137 -41q37 -39 88 -23q43 18 51 60l23 -7q-14 -61 -66 -79q-63 -27 -117 29t-110 34q-35 -14 -43 -59zM129 0h-33v1436l29 -2l952 -1377v1377h31v-1434h-33l-946 1368v-1368z" />
    <glyph glyph-name="ograve" unicode="&#xf2;" horiz-adv-x="1540" 
d="M825 1530h-39l-135 153h56zM39 717q0 301 213 519t518 218t519 -218t214 -519t-214 -519t-519 -218t-518 218t-213 519zM1468 717q0 289 -204 497t-493 207q-290 0 -495 -209q-204 -210 -204 -496t204 -495t495 -209q289 0 493 208t204 497z" />
    <glyph glyph-name="oacute" unicode="&#xf3;" horiz-adv-x="1540" 
d="M811 1526h-39l119 153h55zM39 717q0 301 213 519t518 218t519 -218t214 -519t-214 -519t-519 -218t-518 218t-213 519zM1468 717q0 289 -204 497t-493 207q-290 0 -495 -209q-204 -210 -204 -496t204 -495t495 -209q289 0 493 208t204 497z" />
    <glyph glyph-name="ocircumflex" unicode="&#xf4;" horiz-adv-x="1540" 
d="M678 1524h-33l119 147h55l119 -147h-33l-112 123zM39 717q0 301 213 519t518 218t519 -218t214 -519t-214 -519t-519 -218t-518 218t-213 519zM1468 717q0 289 -204 497t-493 207q-290 0 -495 -209q-204 -210 -204 -496t204 -495t495 -209q289 0 493 208t204 497z" />
    <glyph glyph-name="otilde" unicode="&#xf5;" horiz-adv-x="1540" 
d="M649 1536l-24 6q14 61 61 80q72 29 137 -41q37 -39 88 -22q43 18 52 59l22 -6q-14 -61 -65 -80q-64 -26 -118 30t-110 33q-35 -14 -43 -59zM39 717q0 301 213 519t518 218t519 -218t214 -519t-214 -519t-519 -218t-518 218t-213 519zM1468 717q0 289 -204 497t-493 207
q-290 0 -495 -209q-204 -210 -204 -496t204 -495t495 -209q289 0 493 208t204 497z" />
    <glyph glyph-name="odieresis" unicode="&#xf6;" horiz-adv-x="1540" 
d="M913 1626q39 0 39 -41q0 -14 -11 -25q-11 -12 -27 -12t-28 12q-11 12 -12 25q0 41 39 41zM627 1585q0 41 39 41t39 -41q1 -14 -11 -25q-12 -12 -28 -12t-28 12t-11 25zM39 717q0 301 213 519t518 218t519 -218t214 -519t-214 -519t-519 -218t-518 218t-213 519zM1468 717
q0 289 -204 497t-493 207q-290 0 -495 -209q-204 -210 -204 -496t204 -495t495 -209q289 0 493 208t204 497z" />
    <glyph glyph-name="oslash" unicode="&#xf8;" horiz-adv-x="1540" 
d="M770 1421q-289 0 -494 -209q-204 -210 -204 -496t204 -495q47 -51 101 -86l756 1184q-166 102 -363 102zM1468 717q0 289 -202 495q-61 57 -105 86l-755 -1181q164 -104 364 -105q290 0 494 208t204 497zM1503 717q0 -301 -214 -519t-519 -218q-211 0 -383 108l-102 -160
h-39l112 178q-61 45 -104 91q-215 219 -215 520t213 519t518 218q209 0 381 -108l96 151h41l-108 -170q323 -232 323 -610z" />
    <glyph glyph-name="ugrave" unicode="&#xf9;" horiz-adv-x="1191" 
d="M645 1507h-39l-135 154h55zM94 389v1043h33v-1045q0 -174 143 -272q144 -99 326 -99t326 100t143 273v1043h33v-1045q0 -125 -78 -220q-150 -183 -424 -183q-194 0 -348 108t-154 297z" />
    <glyph glyph-name="uacute" unicode="&#xfa;" horiz-adv-x="1191" 
d="M614 1503h-39l119 154h56zM94 389v1043h33v-1045q0 -174 143 -272q144 -99 326 -99t326 100t143 273v1043h33v-1045q0 -125 -78 -220q-150 -183 -424 -183q-194 0 -348 108t-154 297z" />
    <glyph glyph-name="ucircumflex" unicode="&#xfb;" horiz-adv-x="1191" 
d="M481 1516h-32l118 147h56l118 -147h-32l-113 122zM94 389v1043h33v-1045q0 -174 143 -272q144 -99 326 -99t326 100t143 273v1043h33v-1045q0 -125 -78 -220q-150 -183 -424 -183q-194 0 -348 108t-154 297z" />
    <glyph glyph-name="udieresis" unicode="&#xfc;" horiz-adv-x="1191" 
d="M684 1565q0 41 39 41t39 -41q0 -13 -11 -25t-27 -12t-29 11q-11 11 -11 26zM436 1565q0 41 39 41t39 -41q0 -13 -11 -25t-27 -12t-29 11q-11 11 -11 26zM94 389v1043h33v-1045q0 -174 143 -272q144 -99 326 -99t326 100t143 273v1043h33v-1045q0 -125 -78 -220
q-150 -183 -424 -183q-194 0 -348 108t-154 297z" />
    <glyph glyph-name="yacute" unicode="&#xfd;" horiz-adv-x="1103" 
d="M549 1505h-39l119 154h55zM567 0h-32v592l-527 840h39l504 -807l504 807h39l-527 -840v-592z" />
    <glyph glyph-name="ydieresis" unicode="&#xff;" horiz-adv-x="1103" 
d="M641 1565q0 41 39 41t39 -41q0 -13 -11 -25q-12 -12 -28 -12t-28 11q-11 11 -11 26zM393 1565q0 41 39 41t39 -41q0 -13 -11 -25q-12 -12 -28 -12t-28 11q-11 11 -11 26zM567 0h-32v592l-527 840h39l504 -807l504 807h39l-527 -840v-592z" />
    <glyph glyph-name="OE" unicode="&#x152;" horiz-adv-x="1697" 
d="M770 1417q-309 0 -494 -186q-94 -97 -149 -233t-55 -280t55 -280t149 -231q188 -190 494 -191q66 0 121 9v1382q-66 10 -121 10zM924 700v-673h762v-31h-777q-68 -12 -139 -12q-324 0 -516 198q-100 100 -158 242t-57 294q0 151 58 294t157 243q188 195 516 195
q57 0 123 -10h788v-31h-757v-676h741v-33h-741z" />
    <glyph glyph-name="oe" unicode="&#x153;" horiz-adv-x="1697" 
d="M770 1417q-309 0 -494 -186q-94 -97 -149 -233t-55 -280t55 -280t149 -231q188 -190 494 -191q66 0 121 9v1382q-66 10 -121 10zM924 700v-673h762v-31h-777q-68 -12 -139 -12q-324 0 -516 198q-100 100 -158 242t-57 294q0 151 58 294t157 243q188 195 516 195
q57 0 123 -10h788v-31h-757v-676h741v-33h-741z" />
    <glyph glyph-name="Scaron" unicode="&#x160;" horiz-adv-x="1075" 
d="M535 16q207 0 354 123t106 324q-19 86 -79 137q-60 52 -141 70t-176 27t-186 23t-169 41q-78 29 -128 97t-60 190t69 226q102 133 297 169t373 -49t200 -272l-30 -6q-12 98 -80 172q-127 135 -359 131q-111 -2 -212 -43t-162 -121q-74 -89 -65 -205t59 -178t127 -88
q77 -24 168 -36t185 -22t177 -31q82 -22 142 -78q60 -57 83 -157t-12 -194q-62 -168 -282 -247q-97 -34 -202 -33q-174 0 -322 94t-165 256l-2 14l33 4l2 -14q16 -152 155 -238t302 -86zM655 1663h33l-119 -147h-55l-119 147h33l113 -123z" />
    <glyph glyph-name="scaron" unicode="&#x161;" horiz-adv-x="1079" 
d="M535 16q207 0 354 123t106 324q-19 86 -79 137q-60 52 -141 70t-176 27t-186 23t-169 41q-78 29 -128 97t-60 190t69 226q102 133 297 169t373 -49t200 -272l-30 -6q-12 98 -80 172q-127 135 -359 131q-111 -2 -212 -43t-162 -121q-74 -89 -65 -205t59 -178t127 -88
q77 -24 168 -36t185 -22t177 -31q82 -22 142 -78q60 -57 83 -157t-12 -194q-62 -168 -282 -247q-97 -34 -202 -33q-174 0 -322 94t-165 256l-2 14l33 4l2 -14q16 -152 155 -238t302 -86zM655 1663h33l-119 -147h-55l-119 147h33l113 -123z" />
    <glyph glyph-name="Ydieresis" unicode="&#x178;" horiz-adv-x="1103" 
d="M637 1565q0 41 39 41t39 -41q1 -13 -11 -25t-28 -12t-28 11q-11 11 -11 26zM389 1565q0 41 39 41t39 -41q0 -13 -11 -25q-12 -12 -28 -12t-28 11q-11 11 -11 26zM567 0h-32v592l-527 840h39l504 -807l504 807h39l-527 -840v-592z" />
    <glyph glyph-name="Zcaron" unicode="&#x17d;" horiz-adv-x="1081" 
d="M41 1399v33h1012l22 -37l-1038 -1364h1042v-31h-1065l-18 29l1040 1370h-995zM682 1663h33l-119 -147h-55l-119 147h33l112 -123z" />
    <glyph glyph-name="zcaron" unicode="&#x17e;" horiz-adv-x="1081" 
d="M41 1399v33h1012l22 -37l-1038 -1364h1042v-31h-1065l-18 29l1040 1370h-995zM709 1663h32l-118 -147h-56l-118 147h32l113 -123z" />
    <glyph glyph-name="circumflex" unicode="&#x2c6;" horiz-adv-x="638" 
d="M213 1477h-33l119 147h55l119 -147h-33l-112 122z" />
    <glyph glyph-name="ring" unicode="&#x2da;" horiz-adv-x="571" 
d="M219 1612q-1 -29 19 -48q20 -20 47 -20t47 20t20 48q0 27 -20 47t-47 20t-47 -19t-19 -48zM182 1612q0 43 30 74q30 30 73 30t73 -30t31 -75q0 -44 -31 -74q-32 -30 -74 -30t-72 31t-30 74z" />
    <glyph glyph-name="tilde" unicode="&#x2dc;" horiz-adv-x="712" 
d="M199 1491l-25 6q14 61 62 80q72 29 137 -41q37 -39 88 -23q43 18 51 60l23 -6q-14 -61 -66 -80q-63 -27 -117 29t-110 34q-35 -14 -43 -59z" />
    <glyph glyph-name="uni03A9" unicode="&#x3a9;" horiz-adv-x="1441" 
 />
    <glyph glyph-name="pi" unicode="&#x3c0;" horiz-adv-x="1316" 
 />
    <glyph glyph-name="ellipsis" unicode="&#x2026;" horiz-adv-x="798" 
d="M612 74q39 0 39 -41q0 -13 -11 -25q-12 -12 -28 -12t-27 11t-12 26q0 41 39 41zM338 33q0 41 39 41t39 -41q0 -13 -12 -25t-27 -12q-16 0 -28 11q-11 11 -11 26zM137 74q39 0 39 -41q0 -13 -11 -25t-27 -12t-28 11q-11 11 -12 26q0 41 39 41z" />
    <glyph glyph-name="fraction" unicode="&#x2044;" horiz-adv-x="667" 
 />
    <glyph glyph-name="Euro" unicode="&#x20ac;" horiz-adv-x="1443" 
d="M-18 645v33h94v80h-94v33h98q25 246 201 428q205 211 495 211t496 -211q96 -98 147 -224h-35q-47 111 -135 201q-195 201 -473 201t-473 -201q-168 -174 -192 -405h372v-33h-377v-80h377v-33h-374q25 -242 194 -412q197 -203 473 -203t473 203q90 92 135 199h35
q-51 -125 -147 -223q-205 -211 -496 -211t-495 211q-178 182 -203 436h-96z" />
    <glyph glyph-name="litre" unicode="&#x2113;" horiz-adv-x="1001" 
 />
    <glyph glyph-name="Omega" unicode="&#x2126;" horiz-adv-x="1441" 
 />
    <glyph glyph-name="estimated" unicode="&#x212e;" horiz-adv-x="1345" 
d="M1006 682v340q-143 137 -338 137t-330 -135v-342h668zM670 -25q-264 -1 -427 181t-163 450t161 448t432 181t431 -179t168 -452h-934v-416q139 -135 332 -135q281 0 448 275l74 -45q-102 -154 -222 -231t-300 -77z" />
    <glyph glyph-name="partialdiff" unicode="&#x2202;" horiz-adv-x="1167" 
 />
    <glyph glyph-name="Delta" unicode="&#x2206;" horiz-adv-x="1230" 
 />
    <glyph glyph-name="product" unicode="&#x220f;" horiz-adv-x="1456" 
 />
    <glyph glyph-name="summation" unicode="&#x2211;" horiz-adv-x="1277" 
 />
    <glyph glyph-name="minus" unicode="&#x2212;" horiz-adv-x="1011" 
 />
    <glyph glyph-name="uni2215" unicode="&#x2215;" horiz-adv-x="667" 
 />
    <glyph glyph-name="uni2219" unicode="&#x2219;" horiz-adv-x="337" 
 />
    <glyph glyph-name="radical" unicode="&#x221a;" horiz-adv-x="1034" 
 />
    <glyph glyph-name="infinity" unicode="&#x221e;" horiz-adv-x="1585" 
 />
    <glyph glyph-name="integral" unicode="&#x222b;" horiz-adv-x="995" 
 />
    <glyph glyph-name="approxequal" unicode="&#x2248;" horiz-adv-x="1011" 
 />
    <glyph glyph-name="notequal" unicode="&#x2260;" horiz-adv-x="1011" 
 />
    <glyph glyph-name="lessequal" unicode="&#x2264;" horiz-adv-x="1011" 
 />
    <glyph glyph-name="greaterequal" unicode="&#x2265;" horiz-adv-x="1011" 
 />
    <glyph glyph-name="lozenge" unicode="&#x25ca;" horiz-adv-x="1132" 
d="M563 1419l-413 -702q111 -188 411 -703q254 431 414 703q-78 133 -221 378t-191 324zM596 1434q224 -387 418 -717q-30 -52 -418 -717h-66l-417 715l417 719h66z" />
    <glyph glyph-name="E.alt" unicode="&#xe000;" horiz-adv-x="901" 
d="M129 434v-403h762v-31h-795v1432h791v-31h-758v-934h741v-33h-741z" />
    <glyph glyph-name="Eacute.alt" unicode="&#xe001;" horiz-adv-x="901" 
d="M496 1505h-39l118 154h56zM129 434v-403h762v-31h-795v1432h791v-31h-758v-934h741v-33h-741z" />
    <glyph glyph-name="Egrave.alt" unicode="&#xe002;" horiz-adv-x="901" 
d="M549 1509h-39l-135 154h55zM129 31h762v-31h-795v1432h791v-31h-758v-934h741v-33h-741v-403z" />
    <glyph glyph-name="Ecircumflex.alt" unicode="&#xe003;" horiz-adv-x="901" 
d="M406 1501h-33l119 148h55l119 -148h-33l-113 123zM129 434v-403h762v-31h-795v1432h791v-31h-758v-934h741v-33h-741z" />
    <glyph glyph-name="Edieresis.alt" unicode="&#xe004;" horiz-adv-x="901" 
d="M604 1563q0 41 39 41t39 -41q0 -13 -11 -25t-27 -12t-29 11q-11 11 -11 26zM395 1604q39 0 39 -41q0 -13 -11 -25t-27 -12t-28 11q-11 11 -12 26q0 41 39 41zM129 31h762v-31h-795v1432h791v-31h-758v-934h741v-33h-741v-403z" />
    <glyph glyph-name="F.alt" unicode="&#xe005;" horiz-adv-x="868" 
d="M127 434v-434h-31v1432h772v-31h-741v-934h655v-33h-655z" />
    <glyph glyph-name="H.alt" unicode="&#xe006;" horiz-adv-x="1153" 
d="M127 1432v-967h899v967h33v-1432h-33v434h-899v-434h-31v1432h31z" />
    <glyph glyph-name="N.alt" unicode="&#xe007;" 
d="M1077 1434h31v-1434h-31v764l-948 631v-1395h-33v1436l29 -2l952 -631v631z" />
    <glyph glyph-name="Ntilde.alt" unicode="&#xe008;" 
d="M455 1520l-25 6q14 61 62 80q72 29 137 -41q37 -39 88 -23q43 18 51 60l23 -7q-14 -61 -66 -79q-63 -27 -117 29t-110 34q-35 -14 -43 -59zM1077 1434h31v-1434h-31v764l-948 631v-1395h-33v1436l29 -2l952 -631v631z" />
    <glyph glyph-name="U.alt" unicode="&#xe009;" horiz-adv-x="1189" 
d="M94 109v1323h33v-1315q0 -59 139 -94q138 -35 328 -35t330 34t141 95v1315h33v-1326q0 -92 -251 -132t-502 0t-251 135z" />
    <glyph glyph-name="Uacute.alt" unicode="&#xe00a;" horiz-adv-x="1189" 
d="M582 1505h-39l119 154h55zM94 109v1323h33v-1315q0 -59 139 -94q138 -35 328 -35t330 34t141 95v1315h33v-1326q0 -92 -251 -132t-502 0t-251 135z" />
    <glyph glyph-name="Ugrave.alt" unicode="&#xe00b;" horiz-adv-x="1196" 
d="M659 1505h-38l-136 154h56zM96 1432h33v-1315q0 -59 139 -94q138 -35 328 -35t330 34t141 95v1315h33v-1326q0 -92 -251 -132t-502 -1t-251 136v1323z" />
    <glyph glyph-name="Ucircumflex.alt" unicode="&#xe00c;" horiz-adv-x="1193" 
d="M498 1501h-33l119 148h55l119 -148h-33l-113 123zM96 109v1323h33v-1315q0 -59 139 -94q138 -35 328 -35t330 34t141 95v1315h33v-1326q0 -92 -251 -132t-502 0t-251 135z" />
    <glyph glyph-name="Udieresis.alt" unicode="&#xe00d;" horiz-adv-x="1191" 
d="M745 1606q39 0 39 -41q0 -13 -11 -25t-27 -12t-28 11q-11 11 -11 26q-1 41 38 41zM459 1565q0 41 39 41t39 -41q1 -13 -11 -25t-28 -12t-28 11q-11 11 -11 26zM96 1432h33v-1315q0 -59 139 -94q138 -35 328 -35t330 34t141 95v1315h33v-1326q0 -92 -251 -132t-502 -1
t-251 136v1323z" />
    <glyph glyph-name="Y.alt" unicode="&#xe00e;" horiz-adv-x="1105" 
d="M8 1432h39l516 -1029l492 1029h39l-695 -1432h-32l178 371z" />
    <glyph glyph-name="Ydieresis.alt" unicode="&#xe00f;" horiz-adv-x="1105" 
d="M649 1565q0 41 39 41t39 -41q0 -13 -11 -25q-12 -12 -28 -12t-28 11q-11 11 -11 26zM440 1606q39 0 39 -41q0 -13 -11 -25q-12 -12 -28 -12t-27 11t-12 26q0 41 39 41zM47 1432l516 -1029l492 1029h39l-695 -1432h-32l178 371l-537 1061h39z" />
    <glyph glyph-name="seven.alt" unicode="&#xe010;" horiz-adv-x="761" 
 />
    <glyph glyph-name="nine.alt" unicode="&#xe011;" horiz-adv-x="866" 
 />
    </font>
</defs>
</svg>
